<svg width="30" height="30" viewBox="0 0 30 30" fill="none" xmlns="http://www.w3.org/2000/svg">
<path d="M5 21.25C4.64584 21.25 4.34875 21.13 4.10875 20.89C3.86875 20.65 3.74917 20.3533 3.75 20C3.75 19.6458 3.87 19.3488 4.11 19.1088C4.35 18.8688 4.64667 18.7492 5 18.75C5.35417 18.75 5.65125 18.87 5.89125 19.11C6.13125 19.35 6.25084 19.6467 6.25 20C6.25 20.3542 6.13 20.6513 5.89 20.8913C5.65 21.1313 5.35334 21.2508 5 21.25ZM5 16.25C4.64584 16.25 4.34875 16.13 4.10875 15.89C3.86875 15.65 3.74917 15.3533 3.75 15C3.75 14.6458 3.87 14.3488 4.11 14.1088C4.35 13.8688 4.64667 13.7492 5 13.75C5.35417 13.75 5.65125 13.87 5.89125 14.11C6.13125 14.35 6.25084 14.6467 6.25 15C6.25 15.3542 6.13 15.6513 5.89 15.8913C5.65 16.1313 5.35334 16.2508 5 16.25ZM5 11.25C4.64584 11.25 4.34875 11.13 4.10875 10.89C3.86875 10.65 3.74917 10.3533 3.75 10C3.75 9.64584 3.87 9.34875 4.11 9.10875C4.35 8.86875 4.64667 8.74917 5 8.75C5.35417 8.75 5.65125 8.87 5.89125 9.11C6.13125 9.35 6.25084 9.64667 6.25 10C6.25 10.3542 6.13 10.6513 5.89 10.8913C5.65 11.1313 5.35334 11.2508 5 11.25ZM8.75 21.25V18.75H26.25V21.25H8.75ZM8.75 16.25V13.75H26.25V16.25H8.75ZM8.75 11.25V8.75H26.25V11.25H8.75Z" fill="#577399"/>
</svg>
