<?xml version="1.0" encoding="utf-8"?>
<!-- Generator: Adobe Illustrator 26.0.0, SVG Export Plug-In . SVG Version: 6.00 Build 0)  -->
<svg version="1.1" id="Layer_1" xmlns="http://www.w3.org/2000/svg" xmlns:xlink="http://www.w3.org/1999/xlink" x="0px" y="0px"
	 viewBox="0 0 475 163" style="enable-background:new 0 0 475 163;" xml:space="preserve">
<style type="text/css">
	.st0{fill:#577399;}
	.st1{font-family:'OPTILawrence';}
	.st2{font-size:81.1049px;}
	.st3{opacity:0.5;fill:#577399;}
	.st4{fill:#D8315B;}
	.st5{fill:#101010;}
	.st6{fill:#AF2B50;}
</style>
<g>
	<text transform="matrix(1 0 0 1 122.6405 106.4301)" class="st0 st1 st2">QuikNote</text>
	<g>
		<path class="st3" d="M10.1,48.4c0-6.8,5.5-12.4,12.4-12.4c3.1,0,6.1,0,9.2,0c16.2,0,32.4,0,48.6,0c0.4,0,0.7,0,1.1,0
			c0,3.3,0,6.6,0,10c-0.4,0-0.8,0-1.2,0c-18.8,0-37.6,0-56.5,0c-2,0-2.3,0.3-2.3,2.2c0,21.3,0,42.7,0,64c0,0.4,0,0.7,0,1.3h0
			c-6.3,0-11.4-5.1-11.4-11.4V48.4z"/>
		<path class="st4" d="M34.2,48.6h41.2c4.1,0,7.7,2.5,9.3,6.3c0.4,1,1,2,1.8,3c-0.3,0.2-0.6,0.3-0.9,0.6c-3.8,3.8-7.6,7.6-11.4,11.4
			c-0.2,0.2-0.5,0.4-0.6,0.7c-0.4,0.6-0.4,1.2,0.2,1.6c0.4,0.2,1,0.2,1.5,0.2c0.3,0,0.5-0.4,0.8-0.6c3.8-3.8,7.5-7.5,11.3-11.3
			c0.2-0.2,0.4-0.6,0.6-0.9c0.6,0.5,1.3,0.9,1.9,1.3c3.3,1.8,5.5,5.2,5.5,9v37.7c-0.4,0-0.7,0-1,0c-1.7,0-3.4,0-5.1,0
			c-6.6,0-11.9,5.3-11.9,11.9c0,1.9,0,3.8,0,5.7c0,0.4,0,0.7,0,1.1H34.2c-5.6,0-10.1-4.5-10.1-10.1V58.7
			C24.2,53.1,28.7,48.6,34.2,48.6z"/>
		<path class="st5" d="M95.5,41.4c5.1,0,9.1,4.1,9.1,9.2c0,5-4.2,9.1-9.2,9c-5,0-9.1-4.2-9.1-9.2C86.4,45.3,90.5,41.3,95.5,41.4z"/>
		<path class="st6" d="M82.8,120.3v-5.4c0-1.4,1.1-2.6,2.6-2.6h5.2c2.3,0,3.4,2.7,1.8,4.3l-5.2,5.4
			C85.6,123.7,82.8,122.6,82.8,120.3z"/>
	</g>
</g>
</svg>
