<svg width="114" height="39" viewBox="0 0 114 39" fill="none" xmlns="http://www.w3.org/2000/svg">
<path d="M3.059 10.566V30H0.23V3.76H10.849L18.475 26.351V3.76H21.304V30H9.619L3.059 10.566ZM33.531 30.451C30.1963 30.451 27.627 29.6173 25.823 27.95C24.0463 26.2553 23.158 23.8363 23.158 20.693C23.158 17.5497 24.0463 15.1443 25.823 13.477C27.627 11.7823 30.1963 10.935 33.531 10.935C36.8656 10.935 39.4213 11.7823 41.198 13.477C43.002 15.1443 43.904 17.5497 43.904 20.693C43.904 23.8363 43.002 26.2553 41.198 27.95C39.4213 29.6173 36.8656 30.451 33.531 30.451ZM31.891 25.408C31.891 26.0367 32.0413 26.5697 32.342 27.007C32.67 27.417 33.0663 27.622 33.531 27.622C33.9956 27.622 34.392 27.417 34.72 27.007C35.048 26.5697 35.212 26.0367 35.212 25.408V15.937C35.212 15.3357 35.048 14.83 34.72 14.42C34.392 13.9827 33.9956 13.764 33.531 13.764C33.0663 13.764 32.67 13.969 32.342 14.379C32.0413 14.789 31.891 15.3083 31.891 15.937V25.408ZM45.7544 15.937V11.55H47.9274L55.8814 6.589H56.3324V11.55H59.8174V15.937H56.3324V23.317C56.3324 24.4103 56.4554 25.2167 56.7014 25.736C56.9747 26.2553 57.4667 26.515 58.1774 26.515C58.6147 26.515 58.9701 26.3783 59.2434 26.105C59.5167 25.8317 59.6534 25.4763 59.6534 25.039H60.1864C60.1864 26.105 59.8721 27.0753 59.2434 27.95C58.6147 28.7973 57.7947 29.467 56.7834 29.959C55.7994 30.4237 54.7744 30.656 53.7084 30.656C51.6311 30.656 49.9501 30.0273 48.6654 28.77C47.4081 27.5127 46.7794 25.9 46.7794 23.932V15.937H45.7544ZM62.5785 11.55H72.1315V30H62.5785V11.55ZM62.2505 5.195C62.2505 4.293 62.4828 3.45933 62.9475 2.694C63.4122 1.90133 64.0272 1.27267 64.7925 0.807999C65.5852 0.343332 66.4462 0.110999 67.3755 0.110999C68.2775 0.110999 69.1112 0.343332 69.8765 0.807999C70.6692 1.27267 71.2978 1.90133 71.7625 2.694C72.2272 3.45933 72.4595 4.293 72.4595 5.195C72.4595 6.12433 72.2272 6.98533 71.7625 7.778C71.2978 8.54333 70.6692 9.15833 69.8765 9.623C69.1112 10.0877 68.2775 10.32 67.3755 10.32C65.9542 10.32 64.7378 9.828 63.7265 8.844C62.7425 7.83267 62.2505 6.61633 62.2505 5.195ZM75.9279 15.978H74.9029V11.591H75.9279V10.812C75.9279 9.52733 76.2012 8.37933 76.7479 7.368C77.3219 6.35666 78.1145 5.564 79.1259 4.99C80.1645 4.38867 81.3399 4.088 82.6519 4.088C83.8545 4.088 84.9615 4.334 85.9729 4.826C87.0115 5.318 87.8315 6.00133 88.4329 6.876C89.0342 7.72333 89.3349 8.66633 89.3349 9.705H88.8019C88.8019 9.26767 88.6652 8.91233 88.3919 8.639C88.1185 8.36567 87.7632 8.229 87.3259 8.229C86.6152 8.229 86.1232 8.48867 85.8499 9.008C85.6039 9.52733 85.4809 10.3337 85.4809 11.427V11.591H88.9659V15.978H85.4809V30H75.9279V15.978ZM103.361 38.856C101.585 38.856 99.9447 38.5143 98.4413 37.831C96.9653 37.175 95.7353 36.2593 94.7513 35.084C93.7673 33.9087 93.0977 32.583 92.7423 31.107H93.2753C93.74 31.927 94.4507 32.6103 95.4073 33.157C96.364 33.731 97.4163 34.018 98.5643 34.018C102.172 34.018 104.004 31.8177 104.058 27.417C103.539 28.4557 102.76 29.262 101.721 29.836C100.71 30.41 99.4937 30.697 98.0723 30.697C96.897 30.697 95.831 30.41 94.8743 29.836C93.9177 29.2347 93.166 28.4283 92.6193 27.417C92.0727 26.3783 91.7993 25.2303 91.7993 23.973V11.55H101.352V23.358C101.352 24.3967 101.489 25.1893 101.762 25.736C102.063 26.2827 102.473 26.556 102.992 26.556C103.402 26.556 103.758 26.3783 104.058 26.023V11.55H113.611V28.893C113.611 30.779 113.16 32.4737 112.258 33.977C111.384 35.5077 110.167 36.6967 108.609 37.544C107.051 38.4187 105.302 38.856 103.361 38.856Z" fill="#D8315B"/>
</svg>
