<svg width="18" height="18" viewBox="0 0 18 18" fill="none" xmlns="http://www.w3.org/2000/svg">
<g clip-path="url(#clip0_112_6)">
<path d="M8.25 15C10.0402 15 11.7571 14.2888 13.023 13.023C14.2888 11.7571 15 10.0402 15 8.25C15 6.45979 14.2888 4.7429 13.023 3.47703C11.7571 2.21116 10.0402 1.5 8.25 1.5C6.45979 1.5 4.7429 2.21116 3.47703 3.47703C2.21116 4.7429 1.5 6.45979 1.5 8.25C1.5 10.0402 2.21116 11.7571 3.47703 13.023C4.7429 14.2888 6.45979 15 8.25 15ZM14.1975 15.5175C14.595 16.7175 15.5025 16.8375 16.2 15.7875C16.8375 14.8275 16.4175 14.04 15.2625 14.04C14.4075 14.0325 13.9275 14.7 14.1975 15.5175Z" stroke="#577399" stroke-width="1.5" stroke-linecap="round" stroke-linejoin="round"/>
</g>
<defs>
<clipPath id="clip0_112_6">
<rect width="18" height="18" fill="white"/>
</clipPath>
</defs>
</svg>
