<svg width="441" height="405" viewBox="0 0 441 405" fill="none" xmlns="http://www.w3.org/2000/svg">
<path fill-rule="evenodd" clip-rule="evenodd" d="M411.337 116.339C411.019 116.108 410.265 116.026 409.914 115.956C408.455 115.669 406.953 115.544 405.466 115.544C400.881 115.551 396.222 116.001 391.714 116.779C388.851 117.273 385.39 118.937 382.543 118.033C377.582 116.46 372.569 116.537 367.862 118.784C363.559 120.838 360.292 124.739 358.386 128.955C358.098 129.592 356.931 131.934 356.601 133.513C356.46 133.836 356.324 134.16 356.202 134.49C355.855 135.427 355.543 136.38 355.254 137.336C355.13 137.743 354.82 138.642 355.189 138.816C354.599 139.904 354.076 141.025 353.641 142.182C352.374 145.549 350.989 149.241 350.544 152.809C350.38 154.13 350.373 155.459 350.526 156.782C350.602 157.437 350.571 158.752 351.015 159.25C351.957 160.305 352.44 158.827 352.334 158.123C351.523 152.759 353.089 147.722 354.944 142.68C356.144 139.419 358.116 136.436 360.324 133.735C362.112 131.548 364.029 129.826 366.479 128.377C369.475 126.604 372.678 125.171 375.852 123.733C377.939 122.787 380.029 121.866 382.175 121.052C382.652 120.87 383.402 120.405 383.932 120.403C385.05 120.399 386.636 121.224 387.716 121.531C391.271 122.541 394.87 123.834 398.544 124.35C400.9 124.681 403.107 124.308 405.311 123.524C405.536 123.444 405.914 123.238 406.376 122.944C408.012 122.315 409.56 121.523 410.907 120.381C411.683 119.723 412.388 118.873 413.03 118.094C413.222 117.862 413.308 117.595 413.311 117.342C413.456 117.266 413.552 117.177 413.575 117.073C413.735 116.307 412.273 116.293 411.337 116.339Z" fill="#89C5CC"/>
<path fill-rule="evenodd" clip-rule="evenodd" d="M38.8994 180.19C38 180.918 37.1178 181.661 36.2571 182.435C35.6012 183.024 34.4404 183.73 34.2049 184.623C33.9601 185.552 34.7329 186.421 35.3433 186.982C38.5716 189.95 42.2067 191.957 46.68 192.291C53.5679 192.805 59.5622 191.047 65.5386 187.588C69.7364 185.158 72.5171 181.564 73.1244 176.712C78.1238 178.788 82.9587 181.65 87.0677 185.163C89.0951 186.896 90.8412 188.816 92.4563 190.945C93.4908 192.309 94.4914 193.694 95.4199 195.133C95.8233 195.758 96.234 196.867 96.9002 197.227C97.6827 197.649 98.6285 196.987 98.5897 196.118C98.557 195.394 97.7757 194.555 97.4098 193.963C96.8031 192.981 96.1869 192.005 95.5379 191.05C94.4878 189.504 93.4026 187.98 92.2191 186.532C89.5588 183.28 86.1744 180.595 82.6661 178.304C75.9354 173.91 68.5487 171.142 60.3592 170.907C55.3236 170.763 51.0873 172.482 46.781 175.05C44.0999 176.648 41.3323 178.221 38.8994 180.19Z" fill="#BEDCFB"/>
<path fill-rule="evenodd" clip-rule="evenodd" d="M104.221 158.936C98.9729 153.535 93.7071 148.201 87.8442 143.445C84.3889 140.643 80.7477 138.094 77.1816 135.437C77.5928 135.798 77.9962 136.168 78.3901 136.548C77.2769 135.793 75.8198 135.366 74.6398 134.667C73.3234 133.887 72.0648 132.995 70.8306 132.096C68.4211 130.342 66.0481 128.554 63.5713 126.891C60.8121 125.038 57.9525 123.326 55.1463 121.543C52.7646 120.03 50.3538 118.374 47.8059 117.137C46.4172 116.463 45.0253 115.664 43.6309 114.96C43.1642 114.725 38.429 111.737 38.441 111.728C38.7027 111.531 41.0856 112.65 41.4541 112.8C42.5305 113.24 43.56 113.765 44.5949 114.289C44.0268 113.17 43.5772 111.993 43.3324 110.754C43.2568 110.372 42.651 107.589 42.961 107.356C43.1158 107.239 44.6265 112.218 44.7039 112.697C44.7667 113.086 44.7575 113.645 44.8849 114.013C45.0905 114.608 45.0801 114.429 45.5331 114.764C46.3632 115.378 47.4652 115.762 48.3637 116.274C48.8482 116.545 50.3483 117.617 51.2518 117.922C53.9857 119.249 56.7568 121.291 59.3544 122.986C58.6727 121.705 58.1539 120.367 57.7756 118.963C57.6855 118.63 56.7147 115.642 56.9503 115.465C57.2153 115.265 59.0652 119.829 59.1748 120.261C59.3784 121.064 59.4206 121.957 59.6756 122.738C59.9551 123.595 60.8282 123.899 61.6148 124.399C64.5094 126.237 67.3049 128.19 70.0534 130.233C73.0528 124.901 69.5946 118.464 66.6804 113.991C64.5791 110.768 61.7513 108.004 58.7649 105.591C54.7795 102.371 50.2198 99.7985 45.6656 97.4454C40.3591 94.7039 34.6237 93.0047 28.661 92.2203C25.5424 91.8093 22.352 91.8212 19.2019 91.9529C17.6631 92.0166 16.186 92.2203 14.7113 92.7224C14.0467 92.9487 13.4043 93.234 12.7783 93.5532C12.3027 93.7956 11.1522 94.0517 10.8787 94.4132C8.62763 97.3417 7.47602 100.26 7.65189 103.939C7.81816 107.422 8.91887 110.907 10.4127 114.014C12.0762 117.473 14.2158 120.613 17.0141 123.249C19.149 125.259 21.5358 127.009 23.9069 128.736C32.3402 134.879 43.0322 140.221 53.9547 138.848C57.4904 138.405 60.8532 137.169 63.9957 135.489C64.7364 135.094 65.4724 134.693 66.1715 134.227C66.6428 133.911 67.9027 132.492 68.3764 132.44C69.0266 132.37 70.4259 133.691 71.0356 134.093C75.6684 137.149 80.1798 140.371 84.5963 143.723C89.2959 147.29 93.7643 151.099 98.1016 155.087C99.9461 156.783 101.779 158.484 103.57 160.237C103.987 160.645 105.007 162.147 105.763 162.215C106.241 162.258 106.563 161.85 106.496 161.408C106.377 160.639 104.758 159.489 104.221 158.936Z" fill="#C1DEE2"/>
<path fill-rule="evenodd" clip-rule="evenodd" d="M405.827 137.974C403.795 137.53 401.55 137.564 399.48 137.601C388.375 137.752 377.47 143.006 370.374 151.402C364.332 158.549 362.671 167.435 361.477 176.417C361.359 177.309 361.308 178.195 361.242 179.089C361.227 179.281 361.206 179.452 361.183 179.613C360.714 180.033 360.467 180.522 360.745 181.059C359.711 183.32 358.836 185.639 358.085 188.031C355.876 195.071 353.63 202.244 355.013 209.647C355.337 205.573 356.017 201.408 356.831 197.401C356.877 197.171 356.928 196.943 356.981 196.715C356.987 196.691 356.991 196.667 356.997 196.643C357.284 195.416 357.659 194.226 358.114 193.055C358.119 193.041 358.124 193.029 358.128 193.016C358.189 192.862 358.252 192.709 358.315 192.555C358.446 192.238 358.58 191.921 358.722 191.606C358.77 191.498 358.816 191.39 358.861 191.281C359.523 189.657 359.803 187.828 360.397 186.148C360.539 185.766 360.687 185.386 360.843 185.007C360.852 184.985 360.861 184.963 360.871 184.941C361.292 183.922 361.756 182.916 362.248 181.92C362.515 181.719 362.657 181.222 362.888 180.77C362.935 180.681 363.307 180.087 363.418 179.744C363.708 179.185 363.995 178.626 364.287 178.067C364.279 178.071 364.27 178.074 364.261 178.077C364.552 177.541 364.845 177.007 365.135 176.475C365.199 176.358 365.263 176.242 365.327 176.124C365.432 175.938 365.536 175.752 365.64 175.566C366.612 173.826 367.644 172.121 368.715 170.438C369.097 169.837 370.01 168.975 370.185 168.301C370.192 168.275 370.193 168.252 370.197 168.228C372.522 164.965 375.197 161.957 378.406 159.572C378.018 159.992 377.193 161.413 376.976 161.695C376.308 162.557 375.584 163.359 374.858 164.172C373.556 165.627 372.285 167.127 371.156 168.715C369.09 171.618 367.309 174.672 365.624 177.789C365.609 177.807 365.591 177.824 365.576 177.843C364.729 178.886 364.196 180.462 363.587 181.655C365.998 180.539 368.665 179.812 371.14 178.821C373.608 177.833 376.008 176.732 378.327 175.44C381.407 173.722 384.603 171.784 387.514 169.59C390.849 167.522 393.653 164.675 396.127 161.689C399.054 158.154 401.737 154.59 403.396 150.298C404.212 148.19 404.853 145.991 405.233 143.767C405.25 143.67 405.271 143.565 405.294 143.456C405.683 142.687 406.03 141.902 406.322 141.098C406.786 139.824 407.88 138.422 405.827 137.974Z" fill="#69A1AC"/>
<path fill-rule="evenodd" clip-rule="evenodd" d="M61.3872 152.905C60.7507 152.216 60.0356 151.594 59.1957 151.15C58.9834 151.038 57.402 150.288 57.299 150.452C57.0591 150.836 61.1959 152.684 61.3872 152.905ZM68.8854 148.301C68.88 148.331 69.4283 149.26 69.5779 149.546C69.8955 150.154 70.1887 150.774 70.4646 151.395C70.0564 150.298 69.6363 149.281 68.8854 148.301ZM30.5393 155.871C30.0112 156.041 29.3763 155.371 30.0612 155.206C30.6155 155.073 30.5884 155.042 30.8372 154.596C31.0393 154.234 31.1638 153.792 31.3412 153.412C31.7173 152.605 32.144 151.836 32.6678 151.115C33.7903 149.57 35.1579 148.239 36.6919 147.117C39.3689 145.16 42.3705 143.37 45.5546 142.471C50.6172 141.042 56.3792 140.954 61.4498 141.945C64.5904 142.558 67.4599 143.626 69.5451 146.153C70.5874 147.415 71.4056 148.895 71.7632 150.524C71.8568 150.949 71.8389 151.423 71.9557 151.84C72.1357 152.481 72.0564 152.31 72.8067 152.435C73.6255 152.571 74.4438 152.71 75.262 152.852C77.4044 153.222 79.5594 153.615 81.647 154.216C82.3341 154.414 83.0057 154.656 83.6625 154.936C84.1589 155.148 86.1356 155.815 86.3758 156.459C86.7757 157.532 85.436 157.046 85.0194 156.812C84.6547 156.608 84.2805 156.416 83.9008 156.241C82.9443 155.799 81.9479 155.456 80.9289 155.184C79.8276 154.89 78.7042 154.67 77.5844 154.45C76.5409 154.245 75.4932 154.058 74.4438 153.88C73.8609 153.781 73.2781 153.684 72.6947 153.589C72.495 153.555 72.144 153.383 72.1702 153.642C70.9438 153.406 69.6178 153.44 68.3687 153.375C66.8389 153.295 65.3032 153.229 63.768 153.277C62.6607 153.312 61.5529 153.384 60.451 153.533C59.8073 153.62 59.174 153.747 58.5424 153.908C58.1955 153.996 56.8276 154.184 56.6386 154.486C56.7198 154.356 58.2295 154.482 58.4217 154.475C59.1903 154.446 59.9528 154.37 60.7185 154.285C62.1399 154.126 63.5612 154.043 64.9867 154.055C64.9813 154.305 64.0076 154.751 63.7698 154.916C63.237 155.288 62.7263 155.693 62.2501 156.138C61.4116 156.921 60.4069 157.892 59.827 158.82C59.998 158.546 60.8413 158.191 61.1405 157.982C61.6202 157.647 62.0904 157.29 62.535 156.908C62.945 156.555 63.3282 156.174 63.7048 155.785C64.0815 155.396 64.5922 154.587 65.0874 154.328C65.1172 154.312 65.333 154.482 65.4551 154.424C65.5791 154.366 65.7328 154.074 65.7638 154.062C66.2245 153.885 67.0993 154.105 67.5838 154.128C68.8395 154.186 70.0946 154.262 71.349 154.331C71.7382 154.352 72.0683 154.263 72.2155 154.55C72.3717 154.856 72.085 155.659 72.0034 155.992C71.7006 157.229 71.1637 158.337 70.3174 159.295C68.7334 161.09 66.7793 162.286 64.5725 163.086C56.1195 166.151 47.1264 167.379 38.6758 164.191C35.1773 162.87 29.9084 160.512 30.5393 155.871Z" fill="#89C5CC"/>
<g opacity="0.6">
<path fill-rule="evenodd" clip-rule="evenodd" d="M417.586 300.267C423.337 339.173 283.871 364.551 163.83 346.84C43.789 329.13 -11.2801 259.97 46.0015 223.119C103.283 186.268 411.835 261.361 417.586 300.267Z" fill="#BEDCFB"/>
</g>
<path d="M172.228 45.2647H87.0081C84.3751 45.2647 82.2405 47.3979 82.2405 50.0294V220.368C82.2405 222.999 84.3751 225.132 87.0081 225.132H172.228C174.861 225.132 176.996 222.999 176.996 220.368V50.0294C176.996 47.3979 174.861 45.2647 172.228 45.2647Z" fill="#F2F2F2"/>
<path fill-rule="evenodd" clip-rule="evenodd" d="M129.32 213.816C134.257 213.816 138.259 209.816 138.259 204.882C138.259 199.949 134.257 195.949 129.32 195.949C124.383 195.949 120.381 199.949 120.381 204.882C120.381 209.816 124.383 213.816 129.32 213.816Z" fill="white"/>
<path fill-rule="evenodd" clip-rule="evenodd" d="M121.573 57.1765C122.231 57.1765 122.765 56.6432 122.765 55.9853C122.765 55.3274 122.231 54.7941 121.573 54.7941C120.914 54.7941 120.381 55.3274 120.381 55.9853C120.381 56.6432 120.914 57.1765 121.573 57.1765Z" fill="white"/>
<path d="M137.068 54.7941H126.936C126.278 54.7941 125.745 55.3274 125.745 55.9853C125.745 56.6432 126.278 57.1765 126.936 57.1765H137.068C137.726 57.1765 138.259 56.6432 138.259 55.9853C138.259 55.3274 137.726 54.7941 137.068 54.7941Z" fill="white"/>
<path d="M166.269 61.9412H92.9676C91.651 61.9412 90.5838 63.0078 90.5838 64.3235V91.7206C90.5838 93.0363 91.651 94.1029 92.9676 94.1029H166.269C167.585 94.1029 168.653 93.0363 168.653 91.7206V64.3235C168.653 63.0078 167.585 61.9412 166.269 61.9412Z" fill="white"/>
<mask id="mask0_217_111" style="mask-type:luminance" maskUnits="userSpaceOnUse" x="113" y="71" width="45" height="14">
<path d="M157.33 71.5897H113.826V84.4544H157.33V71.5897Z" fill="white"/>
</mask>
<g mask="url(#mask0_217_111)">
<path d="M155.542 71.5897H115.614C114.626 71.5897 113.826 72.3896 113.826 73.3764V74.6272C113.826 75.614 114.626 76.4139 115.614 76.4139H155.542C156.529 76.4139 157.33 75.614 157.33 74.6272V73.3764C157.33 72.3896 156.529 71.5897 155.542 71.5897Z" fill="#BEDCFB"/>
<path d="M141.239 79.6301H115.614C114.626 79.6301 113.826 80.4301 113.826 81.4169V82.6676C113.826 83.6544 114.626 84.4544 115.614 84.4544H141.239C142.227 84.4544 143.027 83.6544 143.027 82.6676V81.4169C143.027 80.4301 142.227 79.6301 141.239 79.6301Z" fill="#BEDCFB"/>
</g>
<path fill-rule="evenodd" clip-rule="evenodd" d="M103.099 85.1691C107.048 85.1691 110.25 81.969 110.25 78.0221C110.25 74.0751 107.048 70.875 103.099 70.875C99.1493 70.875 95.9473 74.0751 95.9473 78.0221C95.9473 81.969 99.1493 85.1691 103.099 85.1691Z" fill="#D8315B"/>
<path d="M166.269 98.8676H92.9676C91.651 98.8676 90.5838 99.9342 90.5838 101.25V121.5C90.5838 122.816 91.651 123.882 92.9676 123.882H166.269C167.585 123.882 168.653 122.816 168.653 121.5V101.25C168.653 99.9342 167.585 98.8676 166.269 98.8676Z" fill="white"/>
<mask id="mask1_217_111" style="mask-type:luminance" maskUnits="userSpaceOnUse" x="113" y="106" width="45" height="11">
<path d="M157.33 106.372H113.826V116.378H157.33V106.372Z" fill="white"/>
</mask>
<g mask="url(#mask1_217_111)">
<path d="M155.542 106.372H115.614C114.626 106.372 113.826 107.172 113.826 108.159V108.337C113.826 109.324 114.626 110.124 115.614 110.124H155.542C156.529 110.124 157.33 109.324 157.33 108.337V108.159C157.33 107.172 156.529 106.372 155.542 106.372Z" fill="#BEDCFB"/>
<path d="M141.239 112.626H115.614C114.626 112.626 113.826 113.426 113.826 114.412V114.591C113.826 115.578 114.626 116.378 115.614 116.378H141.239C142.227 116.378 143.027 115.578 143.027 114.591V114.412C143.027 113.426 142.227 112.626 141.239 112.626Z" fill="#BEDCFB"/>
</g>
<path fill-rule="evenodd" clip-rule="evenodd" d="M103.099 118.522C107.048 118.522 110.25 115.322 110.25 111.375C110.25 107.428 107.048 104.228 103.099 104.228C99.1493 104.228 95.9473 107.428 95.9473 111.375C95.9473 115.322 99.1493 118.522 103.099 118.522Z" fill="#D8315B"/>
<path d="M166.269 128.647H92.9676C91.651 128.647 90.5838 129.714 90.5838 131.029V151.279C90.5838 152.595 91.651 153.662 92.9676 153.662H166.269C167.585 153.662 168.653 152.595 168.653 151.279V131.029C168.653 129.714 167.585 128.647 166.269 128.647Z" fill="white"/>
<mask id="mask2_217_111" style="mask-type:luminance" maskUnits="userSpaceOnUse" x="113" y="136" width="45" height="11">
<path d="M157.33 136.151H113.826V146.157H157.33V136.151Z" fill="white"/>
</mask>
<g mask="url(#mask2_217_111)">
<path d="M155.542 136.151H115.614C114.626 136.151 113.826 136.951 113.826 137.938V138.117C113.826 139.104 114.626 139.904 115.614 139.904H155.542C156.529 139.904 157.33 139.104 157.33 138.117V137.938C157.33 136.951 156.529 136.151 155.542 136.151Z" fill="#BEDCFB"/>
<path d="M141.239 142.405H115.614C114.626 142.405 113.826 143.205 113.826 144.192V144.371C113.826 145.357 114.626 146.157 115.614 146.157H141.239C142.227 146.157 143.027 145.357 143.027 144.371V144.192C143.027 143.205 142.227 142.405 141.239 142.405Z" fill="#BEDCFB"/>
</g>
<path fill-rule="evenodd" clip-rule="evenodd" d="M103.099 148.301C107.048 148.301 110.25 145.101 110.25 141.154C110.25 137.207 107.048 134.007 103.099 134.007C99.1493 134.007 95.9473 137.207 95.9473 141.154C95.9473 145.101 99.1493 148.301 103.099 148.301Z" fill="#AFB9C5"/>
<path d="M166.269 158.426H92.9676C91.651 158.426 90.5838 159.493 90.5838 160.809V181.059C90.5838 182.375 91.651 183.441 92.9676 183.441H166.269C167.585 183.441 168.653 182.375 168.653 181.059V160.809C168.653 159.493 167.585 158.426 166.269 158.426Z" fill="white"/>
<mask id="mask3_217_111" style="mask-type:luminance" maskUnits="userSpaceOnUse" x="113" y="165" width="45" height="11">
<path d="M157.33 165.931H113.826V175.937H157.33V165.931Z" fill="white"/>
</mask>
<g mask="url(#mask3_217_111)">
<path d="M155.542 165.931H115.614C114.626 165.931 113.826 166.731 113.826 167.718V167.896C113.826 168.883 114.626 169.683 115.614 169.683H155.542C156.529 169.683 157.33 168.883 157.33 167.896V167.718C157.33 166.731 156.529 165.931 155.542 165.931Z" fill="#BEDCFB"/>
<path d="M141.239 172.185H115.614C114.626 172.185 113.826 172.984 113.826 173.971V174.15C113.826 175.137 114.626 175.937 115.614 175.937H141.239C142.227 175.937 143.027 175.137 143.027 174.15V173.971C143.027 172.984 142.227 172.185 141.239 172.185Z" fill="#BEDCFB"/>
</g>
<path fill-rule="evenodd" clip-rule="evenodd" d="M103.099 178.081C107.048 178.081 110.25 174.881 110.25 170.934C110.25 166.987 107.048 163.787 103.099 163.787C99.1493 163.787 95.9473 166.987 95.9473 170.934C95.9473 174.881 99.1493 178.081 103.099 178.081Z" fill="#D8315B"/>
<path fill-rule="evenodd" clip-rule="evenodd" d="M100.202 190.588C99.4127 190.588 98.6255 190.604 97.837 190.645C97.2357 190.676 96.3174 190.552 95.809 190.927C95.2804 191.315 95.3168 192.111 95.3996 192.673C95.8358 195.647 96.9008 198.283 99.1291 200.389C102.56 203.632 106.493 205.28 111.146 206.014C114.416 206.53 117.434 205.814 119.84 203.49C121.599 206.752 122.932 210.361 123.602 214.004C123.932 215.801 124.032 217.577 123.975 219.408C123.937 220.58 123.873 221.749 123.747 222.916C123.692 223.423 123.434 224.19 123.632 224.67C123.865 225.232 124.651 225.287 125.004 224.807C125.298 224.408 125.244 223.623 125.304 223.151C125.404 222.366 125.497 221.58 125.563 220.792C125.671 219.515 125.75 218.235 125.745 216.954C125.731 214.075 125.09 211.185 124.214 208.453C122.534 203.21 119.807 198.551 115.566 194.895C112.959 192.647 109.974 191.737 106.589 191.248C104.48 190.944 102.338 190.588 100.202 190.588Z" fill="#89C5CC"/>
<path fill-rule="evenodd" clip-rule="evenodd" d="M112.378 211.434C103.857 211.434 98.1177 218.297 95.4044 225.431C94.3812 228.12 94.1416 231.073 93.7471 233.896C93.6207 234.802 93.6678 236.183 93.2995 236.99C93.166 237.283 92.8597 237.388 93.0063 237.787C93.0951 238.028 93.2685 238.176 93.5301 238.224C94.0659 238.323 94.8239 237.739 95.2834 237.509C99.0951 235.599 101.599 232.645 103.642 229.031C104.909 226.79 106.194 224.465 106.946 222.006C107.406 220.503 107.673 218.921 107.83 217.362C107.892 216.748 107.952 216.12 107.948 215.503C107.945 214.89 107.659 214.566 107.454 214.033C110.298 212.957 113.507 212.664 116.388 213.779C119.052 214.81 121.264 216.802 122.503 219.305C122.825 219.956 123.074 220.642 123.254 221.342C123.373 221.801 123.378 222.395 123.598 222.81C124.13 223.815 125.249 223.143 125.142 222.207C124.842 219.598 123.348 216.978 121.439 215.164C119.031 212.876 115.767 211.434 112.378 211.434Z" fill="#89C5CC"/>
<path d="M211.561 60.75H126.341C123.707 60.75 121.573 62.8832 121.573 65.5147V235.853C121.573 238.484 123.707 240.618 126.341 240.618H211.561C214.194 240.618 216.328 238.484 216.328 235.853V65.5147C216.328 62.8832 214.194 60.75 211.561 60.75Z" fill="#BEDCFB"/>
<path fill-rule="evenodd" clip-rule="evenodd" d="M168.653 229.301C173.59 229.301 177.592 225.302 177.592 220.368C177.592 215.434 173.59 211.434 168.653 211.434C163.716 211.434 159.714 215.434 159.714 220.368C159.714 225.302 163.716 229.301 168.653 229.301Z" fill="white"/>
<path fill-rule="evenodd" clip-rule="evenodd" d="M160.905 72.6618C161.564 72.6618 162.097 72.1287 162.097 71.4706C162.097 70.8125 161.564 70.2794 160.905 70.2794C160.247 70.2794 159.714 70.8125 159.714 71.4706C159.714 72.1287 160.247 72.6618 160.905 72.6618Z" fill="white"/>
<path d="M176.4 70.2794H166.269C165.611 70.2794 165.077 70.8127 165.077 71.4706C165.077 72.1285 165.611 72.6618 166.269 72.6618H176.4C177.058 72.6618 177.592 72.1285 177.592 71.4706C177.592 70.8127 177.058 70.2794 176.4 70.2794Z" fill="white"/>
<path d="M205.601 77.4265H132.3C130.983 77.4265 129.916 78.4931 129.916 79.8088V107.206C129.916 108.522 130.983 109.588 132.3 109.588H205.601C206.918 109.588 207.985 108.522 207.985 107.206V79.8088C207.985 78.4931 206.918 77.4265 205.601 77.4265Z" fill="white"/>
<mask id="mask4_217_111" style="mask-type:luminance" maskUnits="userSpaceOnUse" x="135" y="87" width="44" height="13">
<path d="M178.784 87.075H135.28V99.9397H178.784V87.075Z" fill="white"/>
</mask>
<g mask="url(#mask4_217_111)">
<path d="M176.996 87.075H137.068C136.08 87.075 135.28 87.8749 135.28 88.8617V90.1125C135.28 91.0993 136.08 91.8992 137.068 91.8992H176.996C177.983 91.8992 178.784 91.0993 178.784 90.1125V88.8617C178.784 87.8749 177.983 87.075 176.996 87.075Z" fill="#BEDCFB"/>
<path d="M162.693 95.1154H137.068C136.08 95.1154 135.28 95.9154 135.28 96.9022V98.1529C135.28 99.1397 136.08 99.9397 137.068 99.9397H162.693C163.681 99.9397 164.481 99.1397 164.481 98.1529V96.9022C164.481 95.9154 163.681 95.1154 162.693 95.1154Z" fill="#BEDCFB"/>
</g>
<path fill-rule="evenodd" clip-rule="evenodd" d="M199.642 97.6764C201.946 97.6764 203.814 95.8099 203.814 93.5073C203.814 91.2048 201.946 89.3382 199.642 89.3382C197.338 89.3382 195.47 91.2048 195.47 93.5073C195.47 95.8099 197.338 97.6764 199.642 97.6764Z" fill="#BEDCFB"/>
<path fill-rule="evenodd" clip-rule="evenodd" d="M199.642 95.294C200.629 95.294 201.43 94.4942 201.43 93.5073C201.43 92.5204 200.629 91.7205 199.642 91.7205C198.654 91.7205 197.854 92.5204 197.854 93.5073C197.854 94.4942 198.654 95.294 199.642 95.294Z" fill="#F2F2F2"/>
<path d="M205.601 114.353H132.3C130.983 114.353 129.916 115.42 129.916 116.735V136.985C129.916 138.301 130.983 139.368 132.3 139.368H205.601C206.918 139.368 207.985 138.301 207.985 136.985V116.735C207.985 115.42 206.918 114.353 205.601 114.353Z" fill="white"/>
<mask id="mask5_217_111" style="mask-type:luminance" maskUnits="userSpaceOnUse" x="153" y="121" width="44" height="11">
<path d="M196.662 121.857H153.158V131.863H196.662V121.857Z" fill="white"/>
</mask>
<g mask="url(#mask5_217_111)">
<path d="M194.874 121.857H154.946C153.959 121.857 153.158 122.657 153.158 123.644V123.823C153.158 124.81 153.959 125.609 154.946 125.609H194.874C195.862 125.609 196.662 124.81 196.662 123.823V123.644C196.662 122.657 195.862 121.857 194.874 121.857Z" fill="#BEDCFB"/>
<path d="M180.572 128.111H154.946C153.959 128.111 153.158 128.911 153.158 129.898V130.076C153.158 131.063 153.959 131.863 154.946 131.863H180.572C181.559 131.863 182.359 131.063 182.359 130.076V129.898C182.359 128.911 181.559 128.111 180.572 128.111Z" fill="#BEDCFB"/>
</g>
<path fill-rule="evenodd" clip-rule="evenodd" d="M142.431 134.007C146.38 134.007 149.582 130.807 149.582 126.86C149.582 122.913 146.38 119.713 142.431 119.713C138.482 119.713 135.28 122.913 135.28 126.86C135.28 130.807 138.482 134.007 142.431 134.007Z" fill="#D8315B"/>
<path d="M205.601 144.132H132.3C130.983 144.132 129.916 145.199 129.916 146.515V166.765C129.916 168.08 130.983 169.147 132.3 169.147H205.601C206.918 169.147 207.985 168.08 207.985 166.765V146.515C207.985 145.199 206.918 144.132 205.601 144.132Z" fill="white"/>
<mask id="mask6_217_111" style="mask-type:luminance" maskUnits="userSpaceOnUse" x="135" y="151" width="44" height="11">
<path d="M178.784 151.637H135.28V161.643H178.784V151.637Z" fill="white"/>
</mask>
<g mask="url(#mask6_217_111)">
<path d="M176.996 151.637H137.068C136.08 151.637 135.28 152.437 135.28 153.423V153.602C135.28 154.589 136.08 155.389 137.068 155.389H176.996C177.983 155.389 178.784 154.589 178.784 153.602V153.423C178.784 152.437 177.983 151.637 176.996 151.637Z" fill="#BEDCFB"/>
<path d="M162.693 157.89H137.068C136.08 157.89 135.28 158.69 135.28 159.677V159.856C135.28 160.843 136.08 161.643 137.068 161.643H162.693C163.681 161.643 164.481 160.843 164.481 159.856V159.677C164.481 158.69 163.681 157.89 162.693 157.89Z" fill="#AFB9C5"/>
</g>
<path fill-rule="evenodd" clip-rule="evenodd" d="M199.642 160.809C201.946 160.809 203.814 158.942 203.814 156.64C203.814 154.337 201.946 152.471 199.642 152.471C197.338 152.471 195.47 154.337 195.47 156.64C195.47 158.942 197.338 160.809 199.642 160.809Z" fill="#BEDCFB"/>
<path fill-rule="evenodd" clip-rule="evenodd" d="M199.642 158.426C200.629 158.426 201.43 157.627 201.43 156.64C201.43 155.653 200.629 154.853 199.642 154.853C198.654 154.853 197.854 155.653 197.854 156.64C197.854 157.627 198.654 158.426 199.642 158.426Z" fill="#F2F2F2"/>
<path d="M205.601 173.912H132.3C130.983 173.912 129.916 174.978 129.916 176.294V196.544C129.916 197.86 130.983 198.926 132.3 198.926H205.601C206.918 198.926 207.985 197.86 207.985 196.544V176.294C207.985 174.978 206.918 173.912 205.601 173.912Z" fill="white"/>
<mask id="mask7_217_111" style="mask-type:luminance" maskUnits="userSpaceOnUse" x="153" y="181" width="44" height="11">
<path d="M196.662 181.416H153.158V191.422H196.662V181.416Z" fill="white"/>
</mask>
<g mask="url(#mask7_217_111)">
<path d="M194.874 181.416H154.946C153.959 181.416 153.158 182.216 153.158 183.203V183.382C153.158 184.368 153.959 185.168 154.946 185.168H194.874C195.862 185.168 196.662 184.368 196.662 183.382V183.203C196.662 182.216 195.862 181.416 194.874 181.416Z" fill="#BEDCFB"/>
<path d="M180.572 187.67H154.946C153.959 187.67 153.158 188.47 153.158 189.457V189.635C153.158 190.622 153.959 191.422 154.946 191.422H180.572C181.559 191.422 182.359 190.622 182.359 189.635V189.457C182.359 188.47 181.559 187.67 180.572 187.67Z" fill="#BEDCFB"/>
</g>
<path fill-rule="evenodd" clip-rule="evenodd" d="M142.431 193.566C146.38 193.566 149.582 190.366 149.582 186.419C149.582 182.472 146.38 179.272 142.431 179.272C138.482 179.272 135.28 182.472 135.28 186.419C135.28 190.366 138.482 193.566 142.431 193.566Z" fill="#D8315B"/>
<path d="M355.78 75.6397H165.673C163.04 75.6397 160.905 77.7729 160.905 80.4044V276.949C160.905 279.58 163.04 281.713 165.673 281.713H355.78C358.413 281.713 360.547 279.58 360.547 276.949V80.4044C360.547 77.7729 358.413 75.6397 355.78 75.6397Z" fill="#F2F2F2"/>
<path d="M346.245 101.25H314.064C311.43 101.25 309.296 103.383 309.296 106.015V144.728C309.296 147.359 311.43 149.493 314.064 149.493H346.245C348.878 149.493 351.012 147.359 351.012 144.728V106.015C351.012 103.383 348.878 101.25 346.245 101.25Z" fill="white"/>
<path fill-rule="evenodd" clip-rule="evenodd" d="M330.154 129.243C335.42 129.243 339.689 124.976 339.689 119.713C339.689 114.45 335.42 110.184 330.154 110.184C324.888 110.184 320.619 114.45 320.619 119.713C320.619 124.976 324.888 129.243 330.154 129.243Z" fill="#BEDCFB"/>
<path d="M343.265 131.625H317.043C316.056 131.625 315.255 132.425 315.255 133.412C315.255 134.399 316.056 135.199 317.043 135.199H343.265C344.252 135.199 345.053 134.399 345.053 133.412C345.053 132.425 344.252 131.625 343.265 131.625Z" fill="#BEDCFB"/>
<path d="M338.497 137.581H321.811C320.823 137.581 320.023 138.381 320.023 139.368C320.023 140.354 320.823 141.154 321.811 141.154H338.497C339.485 141.154 340.285 140.354 340.285 139.368C340.285 138.381 339.485 137.581 338.497 137.581Z" fill="#BEDCFB"/>
<path d="M160.905 80.4044C160.905 77.7731 163.04 75.6397 165.673 75.6397H355.78C358.413 75.6397 360.547 77.7731 360.547 80.4044V91.7206H160.905V80.4044Z" fill="#D8315B"/>
<path fill-rule="evenodd" clip-rule="evenodd" d="M168.653 86.3603C169.969 86.3603 171.036 85.2936 171.036 83.9779C171.036 82.6623 169.969 81.5956 168.653 81.5956C167.336 81.5956 166.269 82.6623 166.269 83.9779C166.269 85.2936 167.336 86.3603 168.653 86.3603Z" fill="#F2F2F2"/>
<path fill-rule="evenodd" clip-rule="evenodd" d="M175.804 86.3603C177.121 86.3603 178.188 85.2936 178.188 83.9779C178.188 82.6623 177.121 81.5956 175.804 81.5956C174.488 81.5956 173.42 82.6623 173.42 83.9779C173.42 85.2936 174.488 86.3603 175.804 86.3603Z" fill="#F2F2F2"/>
<path fill-rule="evenodd" clip-rule="evenodd" d="M182.955 86.3603C184.272 86.3603 185.339 85.2936 185.339 83.9779C185.339 82.6623 184.272 81.5956 182.955 81.5956C181.639 81.5956 180.572 82.6623 180.572 83.9779C180.572 85.2936 181.639 86.3603 182.955 86.3603Z" fill="#F2F2F2"/>
<path d="M346.245 154.257H314.064C311.43 154.257 309.296 156.391 309.296 159.022V265.037C309.296 267.668 311.43 269.801 314.064 269.801H346.245C348.878 269.801 351.012 267.668 351.012 265.037V159.022C351.012 156.391 348.878 154.257 346.245 154.257Z" fill="white"/>
<path d="M337.901 164.978H322.407C321.09 164.978 320.023 166.045 320.023 167.36V178.081C320.023 179.397 321.09 180.463 322.407 180.463H337.901C339.218 180.463 340.285 179.397 340.285 178.081V167.36C340.285 166.045 339.218 164.978 337.901 164.978Z" fill="#BEDCFB"/>
<path d="M337.901 185.228H322.407C321.09 185.228 320.023 186.295 320.023 187.61V197.735C320.023 199.051 321.09 200.118 322.407 200.118H337.901C339.218 200.118 340.285 199.051 340.285 197.735V187.61C340.285 186.295 339.218 185.228 337.901 185.228Z" fill="#AFB9C5"/>
<path d="M337.901 204.882H322.407C321.09 204.882 320.023 205.949 320.023 207.265V217.39C320.023 218.705 321.09 219.772 322.407 219.772H337.901C339.218 219.772 340.285 218.705 340.285 217.39V207.265C340.285 205.949 339.218 204.882 337.901 204.882Z" fill="#BEDCFB"/>
<path d="M337.901 244.191H322.407C321.09 244.191 320.023 245.258 320.023 246.574V256.699C320.023 258.014 321.09 259.081 322.407 259.081H337.901C339.218 259.081 340.285 258.014 340.285 256.699V246.574C340.285 245.258 339.218 244.191 337.901 244.191Z" fill="#BEDCFB"/>
<path d="M337.901 224.537H322.407C321.09 224.537 320.023 225.603 320.023 226.919V237.044C320.023 238.36 321.09 239.426 322.407 239.426H337.901C339.218 239.426 340.285 238.36 340.285 237.044V226.919C340.285 225.603 339.218 224.537 337.901 224.537Z" fill="#D8315B"/>
<path d="M302.145 101.846H172.824C171.508 101.846 170.441 102.912 170.441 104.228V127.456C170.441 128.772 171.508 129.838 172.824 129.838H302.145C303.461 129.838 304.528 128.772 304.528 127.456V104.228C304.528 102.912 303.461 101.846 302.145 101.846Z" fill="white"/>
<mask id="mask8_217_111" style="mask-type:luminance" maskUnits="userSpaceOnUse" x="175" y="110" width="101" height="12">
<path d="M275.327 110.243H175.804V121.44H275.327V110.243Z" fill="white"/>
</mask>
<g mask="url(#mask8_217_111)">
<path d="M273.539 110.243H177.592C176.604 110.243 175.804 111.043 175.804 112.03V112.656C175.804 113.642 176.604 114.442 177.592 114.442H273.539C274.527 114.442 275.327 113.642 275.327 112.656V112.03C275.327 111.043 274.527 110.243 273.539 110.243Z" fill="#BEDCFB"/>
<path d="M240.819 117.242H177.592C176.604 117.242 175.804 118.042 175.804 119.028V119.654C175.804 120.641 176.604 121.44 177.592 121.44H240.819C241.807 121.44 242.607 120.641 242.607 119.654V119.028C242.607 118.042 241.807 117.242 240.819 117.242Z" fill="#BEDCFB"/>
</g>
<path fill-rule="evenodd" clip-rule="evenodd" d="M290.198 120.011C292.502 120.011 294.37 118.144 294.37 115.842C294.37 113.539 292.502 111.673 290.198 111.673C287.894 111.673 286.027 113.539 286.027 115.842C286.027 118.144 287.894 120.011 290.198 120.011Z" fill="#BEDCFB"/>
<path fill-rule="evenodd" clip-rule="evenodd" d="M290.198 117.629C291.186 117.629 291.986 116.829 291.986 115.842C291.986 114.855 291.186 114.055 290.198 114.055C289.211 114.055 288.41 114.855 288.41 115.842C288.41 116.829 289.211 117.629 290.198 117.629Z" fill="#F2F2F2"/>
<path d="M302.145 134.603H172.824C171.508 134.603 170.441 135.67 170.441 136.985V155.448C170.441 156.764 171.508 157.831 172.824 157.831H302.145C303.461 157.831 304.528 156.764 304.528 155.448V136.985C304.528 135.67 303.461 134.603 302.145 134.603Z" fill="white"/>
<mask id="mask9_217_111" style="mask-type:luminance" maskUnits="userSpaceOnUse" x="175" y="141" width="101" height="10">
<path d="M275.327 141.571H175.804V150.862H275.327V141.571Z" fill="white"/>
</mask>
<g mask="url(#mask9_217_111)">
<path d="M273.584 141.571H177.547C176.584 141.571 175.804 142.351 175.804 143.313C175.804 144.276 176.584 145.055 177.547 145.055H273.584C274.547 145.055 275.327 144.276 275.327 143.313C275.327 142.351 274.547 141.571 273.584 141.571Z" fill="#BEDCFB"/>
<path d="M240.864 147.378H177.547C176.584 147.378 175.804 148.158 175.804 149.12C175.804 150.083 176.584 150.862 177.547 150.862H240.864C241.827 150.862 242.607 150.083 242.607 149.12C242.607 148.158 241.827 147.378 240.864 147.378Z" fill="#BEDCFB"/>
</g>
<path fill-rule="evenodd" clip-rule="evenodd" d="M290.198 150.386C292.502 150.386 294.37 148.519 294.37 146.217C294.37 143.914 292.502 142.048 290.198 142.048C287.894 142.048 286.027 143.914 286.027 146.217C286.027 148.519 287.894 150.386 290.198 150.386Z" fill="#BEDCFB"/>
<path fill-rule="evenodd" clip-rule="evenodd" d="M290.198 148.004C291.186 148.004 291.986 147.204 291.986 146.217C291.986 145.23 291.186 144.43 290.198 144.43C289.211 144.43 288.41 145.23 288.41 146.217C288.41 147.204 289.211 148.004 290.198 148.004Z" fill="#F2F2F2"/>
<path d="M302.145 162.596H172.824C171.508 162.596 170.441 163.662 170.441 164.978V183.441C170.441 184.757 171.508 185.824 172.824 185.824H302.145C303.461 185.824 304.528 184.757 304.528 183.441V164.978C304.528 163.662 303.461 162.596 302.145 162.596Z" fill="white"/>
<mask id="mask10_217_111" style="mask-type:luminance" maskUnits="userSpaceOnUse" x="175" y="169" width="101" height="10">
<path d="M275.327 169.564H175.804V178.855H275.327V169.564Z" fill="white"/>
</mask>
<g mask="url(#mask10_217_111)">
<path d="M273.584 169.564H177.547C176.584 169.564 175.804 170.344 175.804 171.306C175.804 172.268 176.584 173.048 177.547 173.048H273.584C274.547 173.048 275.327 172.268 275.327 171.306C275.327 170.344 274.547 169.564 273.584 169.564Z" fill="#BEDCFB"/>
<path d="M240.864 175.371H177.547C176.584 175.371 175.804 176.151 175.804 177.113C175.804 178.075 176.584 178.855 177.547 178.855H240.864C241.827 178.855 242.607 178.075 242.607 177.113C242.607 176.151 241.827 175.371 240.864 175.371Z" fill="#BEDCFB"/>
</g>
<path fill-rule="evenodd" clip-rule="evenodd" d="M290.198 178.379C292.502 178.379 294.37 176.512 294.37 174.21C294.37 171.907 292.502 170.04 290.198 170.04C287.894 170.04 286.027 171.907 286.027 174.21C286.027 176.512 287.894 178.379 290.198 178.379Z" fill="#BEDCFB"/>
<path fill-rule="evenodd" clip-rule="evenodd" d="M290.198 175.996C291.186 175.996 291.986 175.196 291.986 174.209C291.986 173.223 291.186 172.423 290.198 172.423C289.211 172.423 288.41 173.223 288.41 174.209C288.41 175.196 289.211 175.996 290.198 175.996Z" fill="#AFB9C5"/>
<path d="M302.145 246.574H172.824C171.508 246.574 170.441 247.64 170.441 248.956V267.419C170.441 268.735 171.508 269.801 172.824 269.801H302.145C303.461 269.801 304.528 268.735 304.528 267.419V248.956C304.528 247.64 303.461 246.574 302.145 246.574Z" fill="white"/>
<mask id="mask11_217_111" style="mask-type:luminance" maskUnits="userSpaceOnUse" x="175" y="253" width="101" height="10">
<path d="M275.327 253.542H175.804V262.833H275.327V253.542Z" fill="white"/>
</mask>
<g mask="url(#mask11_217_111)">
<path d="M273.584 253.542H177.547C176.584 253.542 175.804 254.322 175.804 255.284C175.804 256.246 176.584 257.026 177.547 257.026H273.584C274.547 257.026 275.327 256.246 275.327 255.284C275.327 254.322 274.547 253.542 273.584 253.542Z" fill="#BEDCFB"/>
<path d="M240.864 259.349H177.547C176.584 259.349 175.804 260.129 175.804 261.091C175.804 262.053 176.584 262.833 177.547 262.833H240.864C241.827 262.833 242.607 262.053 242.607 261.091C242.607 260.129 241.827 259.349 240.864 259.349Z" fill="#BEDCFB"/>
</g>
<path fill-rule="evenodd" clip-rule="evenodd" d="M290.198 262.357C292.502 262.357 294.37 260.49 294.37 258.187C294.37 255.885 292.502 254.018 290.198 254.018C287.894 254.018 286.027 255.885 286.027 258.187C286.027 260.49 287.894 262.357 290.198 262.357Z" fill="#BEDCFB"/>
<path fill-rule="evenodd" clip-rule="evenodd" d="M290.198 259.974C291.186 259.974 291.986 259.174 291.986 258.187C291.986 257.201 291.186 256.401 290.198 256.401C289.211 256.401 288.41 257.201 288.41 258.187C288.41 259.174 289.211 259.974 290.198 259.974Z" fill="#F2F2F2"/>
<path d="M302.145 218.581H172.824C171.508 218.581 170.441 219.647 170.441 220.963V239.426C170.441 240.742 171.508 241.809 172.824 241.809H302.145C303.461 241.809 304.528 240.742 304.528 239.426V220.963C304.528 219.647 303.461 218.581 302.145 218.581Z" fill="white"/>
<mask id="mask12_217_111" style="mask-type:luminance" maskUnits="userSpaceOnUse" x="175" y="225" width="101" height="10">
<path d="M275.327 225.549H175.804V234.84H275.327V225.549Z" fill="white"/>
</mask>
<g mask="url(#mask12_217_111)">
<path d="M273.584 225.549H177.547C176.584 225.549 175.804 226.329 175.804 227.291C175.804 228.253 176.584 229.033 177.547 229.033H273.584C274.547 229.033 275.327 228.253 275.327 227.291C275.327 226.329 274.547 225.549 273.584 225.549Z" fill="#BEDCFB"/>
<path d="M240.864 231.356H177.547C176.584 231.356 175.804 232.136 175.804 233.098C175.804 234.06 176.584 234.84 177.547 234.84H240.864C241.827 234.84 242.607 234.06 242.607 233.098C242.607 232.136 241.827 231.356 240.864 231.356Z" fill="#BEDCFB"/>
</g>
<path fill-rule="evenodd" clip-rule="evenodd" d="M290.198 234.364C292.502 234.364 294.37 232.497 294.37 230.195C294.37 227.892 292.502 226.026 290.198 226.026C287.894 226.026 286.027 227.892 286.027 230.195C286.027 232.497 287.894 234.364 290.198 234.364Z" fill="#BEDCFB"/>
<path fill-rule="evenodd" clip-rule="evenodd" d="M290.198 231.982C291.186 231.982 291.986 231.182 291.986 230.195C291.986 229.208 291.186 228.408 290.198 228.408C289.211 228.408 288.41 229.208 288.41 230.195C288.41 231.182 289.211 231.982 290.198 231.982Z" fill="#F2F2F2"/>
<path d="M302.145 190.588H172.824C171.508 190.588 170.441 191.655 170.441 192.971V211.434C170.441 212.75 171.508 213.816 172.824 213.816H302.145C303.461 213.816 304.528 212.75 304.528 211.434V192.971C304.528 191.655 303.461 190.588 302.145 190.588Z" fill="white"/>
<mask id="mask13_217_111" style="mask-type:luminance" maskUnits="userSpaceOnUse" x="175" y="197" width="101" height="10">
<path d="M275.327 197.557H175.804V206.848H275.327V197.557Z" fill="white"/>
</mask>
<g mask="url(#mask13_217_111)">
<path d="M273.584 197.557H177.547C176.584 197.557 175.804 198.337 175.804 199.299C175.804 200.261 176.584 201.041 177.547 201.041H273.584C274.547 201.041 275.327 200.261 275.327 199.299C275.327 198.337 274.547 197.557 273.584 197.557Z" fill="#BEDCFB"/>
<path d="M240.864 203.364H177.547C176.584 203.364 175.804 204.144 175.804 205.106C175.804 206.068 176.584 206.848 177.547 206.848H240.864C241.827 206.848 242.607 206.068 242.607 205.106C242.607 204.144 241.827 203.364 240.864 203.364Z" fill="#BEDCFB"/>
</g>
<path fill-rule="evenodd" clip-rule="evenodd" d="M290.198 206.371C292.502 206.371 294.37 204.505 294.37 202.202C294.37 199.9 292.502 198.033 290.198 198.033C287.894 198.033 286.027 199.9 286.027 202.202C286.027 204.505 287.894 206.371 290.198 206.371Z" fill="#BEDCFB"/>
<path fill-rule="evenodd" clip-rule="evenodd" d="M290.198 203.989C291.186 203.989 291.986 203.189 291.986 202.202C291.986 201.215 291.186 200.415 290.198 200.415C289.211 200.415 288.41 201.215 288.41 202.202C288.41 203.189 289.211 203.989 290.198 203.989Z" fill="#F2F2F2"/>
<path fill-rule="evenodd" clip-rule="evenodd" d="M410.002 177.114C407.651 175.52 404.526 175.103 401.713 175.103C390.726 175.103 380.399 179.177 371.477 185.247C366.589 188.573 362.216 192.809 358.355 197.218C356.127 199.764 354.14 202.518 352.733 205.581C351.783 207.648 351.132 209.802 350.69 212.024C350.152 214.732 349.724 217.494 349.531 220.247C349.455 221.331 348.825 227.082 350.628 227.18C350.618 227.322 350.615 227.457 350.627 227.578C346.711 233.697 344.292 240.868 342.048 247.666C340.096 253.583 338.357 259.549 337.228 265.67C335.741 273.728 334.765 281.907 334.301 290.081C334.201 291.838 334.133 293.595 334.074 295.354C334.024 296.854 333.973 298.355 333.923 299.855C333.869 301.537 333.572 303.472 333.84 305.144C334.073 306.599 335.333 306.379 335.389 304.93C335.457 303.181 335.445 301.428 335.522 299.678C335.624 297.355 335.729 295.031 335.843 292.708C336.635 276.573 339.606 260.674 345.089 245.432C347.308 239.264 349.851 233.426 353.119 227.72C355.992 222.704 359.448 217.846 362.981 213.324C366.414 208.928 369.985 204.634 374.191 200.91C377.606 197.888 381.361 195.255 385.222 192.805C390.125 189.694 395.019 186.658 400.33 184.27C403.091 183.028 405.903 181.917 408.686 180.725C409.187 180.511 409.723 180.304 410.204 180.055C411.811 179.227 411.282 177.981 410.002 177.114Z" fill="#C1DEE2"/>
<path fill-rule="evenodd" clip-rule="evenodd" d="M365.802 233.471C370.258 233.471 374.224 234.049 378.329 235.819C381.873 237.347 385.103 239.369 388.239 241.57C392.65 244.666 396.124 248.27 398.556 253.045C400.009 255.897 401.075 259.933 400.099 263.045C398.95 266.709 395.794 269.765 391.637 269.12C389.067 268.72 386.711 267.02 384.758 265.42C382.42 263.505 380.55 261.203 379.005 258.646C376.485 254.475 375.005 249.761 372.864 245.402C371.849 243.334 370.867 241.251 369.65 239.285C369.048 238.312 368.407 237.347 367.494 236.624C367.005 236.236 364.944 235.567 365.732 234.698C354.177 234.849 343.939 243.719 341.721 254.698C341.515 255.721 341.353 256.753 341.182 257.782C341.075 258.432 341.118 260.83 340.537 261.245C339.254 262.161 339.793 259.378 339.848 258.977C339.991 257.942 340.142 256.907 340.301 255.874C341.168 250.255 343.671 245.032 347.845 241.024C352.618 236.443 359.058 233.471 365.802 233.471Z" fill="#89C5CC"/>
<path fill-rule="evenodd" clip-rule="evenodd" d="M44.6589 219.615C55.7831 238.266 68.7394 256.326 76.5201 276.718C76.2066 274.314 75.8741 271.913 75.5016 269.516C73.5278 256.805 71.0737 244.188 68.4956 231.586C67.1828 225.169 65.7936 218.776 64.3693 212.383C63.6035 208.95 62.8467 205.514 62.0648 202.084C61.8753 201.253 61.7126 199.801 61.476 198.331C69.0374 223.129 76.3294 247.946 81.6631 273.34C82.3627 276.673 82.9587 280 83.4467 283.321C83.6136 282.564 83.7781 281.806 83.9575 281.05C86.116 271.993 89.3532 263.008 93.2077 254.539C95.0504 250.49 97.1666 246.528 99.6588 242.837C101.213 240.536 104.878 237.801 106.295 235.444C98.5426 249.656 95.7429 267.438 91.2661 282.888C90.1738 286.659 89.0742 290.423 87.9968 294.194C94.7477 280.663 105.222 269.546 119.785 264.729C102.157 276.369 91.5838 296.754 84.4586 317.603C84.4354 317.851 84.4074 318.098 84.383 318.345C86.4801 314.369 89.1207 310.771 92.7 308.253C100.361 302.859 108.86 304.43 116.291 309.057C110.459 305.352 99.9181 308.726 95.0105 312.491C91.4974 315.187 88.495 318.803 85.8877 322.332C85.2632 323.178 84.4104 324.165 83.5099 325.217C82.2477 333.407 80.1905 341.541 77.2775 349.61C77.7584 347.294 77.411 343.59 77.5445 341.863C77.5588 341.677 77.5707 341.489 77.585 341.304C77.1422 343.07 76.7143 344.816 76.3025 346.535C77.1214 343.256 77.5659 339.833 77.9134 336.374C78.0028 334.888 78.0904 333.401 78.1821 331.915C78.1529 329.094 78.0367 326.263 77.8401 323.426C77.1434 320.669 76.3627 318.069 75.7185 315.907C73.3961 308.104 69.9903 300.629 65.799 293.655C61.9748 287.291 57.397 281.527 52.1124 276.314C49.2635 273.504 46.282 270.829 43.3425 268.116C42.2796 267.135 40.3796 264.723 38.7365 263.466C50.7034 270.06 63.0207 277.193 71.7507 287.817C70.7269 283.889 69.6154 280.016 68.4396 276.222C62.4736 256.969 54.941 237.016 44.6589 219.615Z" fill="#BEDCFB"/>
<path fill-rule="evenodd" clip-rule="evenodd" d="M56.6149 325.191C56.6149 346.572 58.309 363.904 81.0487 363.904C103.788 363.904 105.482 346.572 105.482 325.191" fill="#D8315B"/>
<path d="M313.468 51.8162C313.468 50.8294 312.667 50.0294 311.68 50.0294C310.692 50.0294 309.892 50.8294 309.892 51.8162V63.1324C309.892 64.1192 310.692 64.9191 311.68 64.9191C312.667 64.9191 313.468 64.1192 313.468 63.1324V51.8162Z" fill="#BEDCFB"/>
<path d="M321.811 42.2868C321.811 41.3 321.01 40.5 320.023 40.5C319.036 40.5 318.235 41.3 318.235 42.2868V63.1324C318.235 64.1192 319.036 64.9191 320.023 64.9191C321.01 64.9191 321.811 64.1192 321.811 63.1324V42.2868Z" fill="#BEDCFB"/>
<path d="M330.154 37.5221C330.154 36.5353 329.354 35.7353 328.366 35.7353C327.379 35.7353 326.578 36.5353 326.578 37.5221V63.1323C326.578 64.1192 327.379 64.9191 328.366 64.9191C329.354 64.9191 330.154 64.1192 330.154 63.1323V37.5221Z" fill="#BEDCFB"/>
<path d="M338.497 42.2868C338.497 41.3 337.697 40.5 336.709 40.5C335.722 40.5 334.922 41.3 334.922 42.2868V63.1324C334.922 64.1192 335.722 64.9191 336.709 64.9191C337.697 64.9191 338.497 64.1192 338.497 63.1324V42.2868Z" fill="#BEDCFB"/>
<path d="M346.841 32.7573C346.841 31.7705 346.04 30.9706 345.053 30.9706C344.065 30.9706 343.265 31.7705 343.265 32.7573V63.1323C343.265 64.1191 344.065 64.9191 345.053 64.9191C346.04 64.9191 346.841 64.1191 346.841 63.1323V32.7573Z" fill="#D8315B"/>
<path fill-rule="evenodd" clip-rule="evenodd" d="M16.6865 213.373C16.6865 206.739 22.0512 201.309 28.6054 201.309V213.373L20.46 222.154C18.143 220.007 16.6865 216.858 16.6865 213.373Z" fill="#F2F2F2"/>
<path fill-rule="evenodd" clip-rule="evenodd" d="M28.29 213.221H40.3265C40.3265 216.33 39.0572 219.244 37.0507 221.361C34.8438 223.677 31.7011 225.132 28.29 225.132C25.1479 225.132 22.2718 223.876 20.0643 221.891L28.29 213.221Z" fill="#AFB9C5"/>
<path fill-rule="evenodd" clip-rule="evenodd" d="M40.5243 213.221C40.5243 206.67 35.1596 201.309 28.6054 201.309V213.221H40.5243ZM22.6459 201.309L27.4135 212.029L16.6865 207.265C17.7473 204.486 20.1293 202.369 22.6459 201.309Z" fill="#D8315B"/>
<path fill-rule="evenodd" clip-rule="evenodd" d="M404.508 218.687C403.363 219.902 401.741 220.665 399.936 220.665C396.47 220.665 393.659 217.866 393.659 214.412C393.659 210.958 396.47 208.158 399.936 208.158V196.544C390.074 196.544 382.001 204.586 382.001 214.412C382.001 224.237 390.074 232.279 399.936 232.279C405.117 232.279 409.799 230.096 412.991 226.623L404.508 218.687Z" fill="#F2F2F2"/>
<path fill-rule="evenodd" clip-rule="evenodd" d="M399.88 196.544V208.158C403.336 208.158 406.137 210.958 406.137 214.412H417.758C417.758 204.586 409.711 196.544 399.88 196.544Z" fill="#AFB9C5"/>
<path fill-rule="evenodd" clip-rule="evenodd" d="M405.897 214.412C405.897 216.441 404.94 218.244 403.455 219.409L410.763 228.706C415.016 225.378 417.758 220.218 417.758 214.412H405.897Z" fill="#D8315B"/>
<path fill-rule="evenodd" clip-rule="evenodd" d="M290.852 54.4986C289.971 55.4301 288.723 56.015 287.335 56.015C284.668 56.015 282.507 53.8685 282.507 51.2206C282.507 48.5726 284.668 46.4261 287.335 46.4261V37.522C279.749 37.522 273.539 43.6877 273.539 51.2206C273.539 58.7534 279.749 64.9191 287.335 64.9191C291.32 64.9191 294.922 63.2449 297.377 60.582L290.852 54.4986Z" fill="#F2F2F2"/>
<path fill-rule="evenodd" clip-rule="evenodd" d="M287.246 37.522V46.4261C289.896 46.4261 292.043 48.5726 292.043 51.2206H300.953C300.953 43.6877 294.783 37.522 287.246 37.522Z" fill="#AFB9C5"/>
<path fill-rule="evenodd" clip-rule="evenodd" d="M292.057 51.2206C292.057 52.7424 291.34 54.0952 290.226 54.9687L295.706 61.9412C298.897 59.4449 300.953 55.5755 300.953 51.2206H292.057Z" fill="#D8315B"/>
<path fill-rule="evenodd" clip-rule="evenodd" d="M73.9018 64.9109C73.8993 64.9171 73.8968 64.9233 73.8931 64.9307C73.8968 64.9245 73.9018 64.8998 73.9018 64.9109Z" fill="#D8315B"/>
<path fill-rule="evenodd" clip-rule="evenodd" d="M73.8961 64.9199C73.8961 64.9211 73.8949 64.9236 73.8949 64.926C73.8949 64.9199 73.9059 64.9016 73.8961 64.9199Z" fill="#D8315B"/>
<path fill-rule="evenodd" clip-rule="evenodd" d="M73.9376 64.8191C73.9292 64.843 73.9184 64.8658 73.9088 64.8897C73.9136 64.8777 73.9184 64.8682 73.9232 64.8562C73.7987 65.1674 73.8777 64.9651 73.9376 64.8191Z" fill="#D8315B"/>
<path fill-rule="evenodd" clip-rule="evenodd" d="M73.9105 64.8912C73.9057 64.9019 73.901 64.9139 73.8962 64.9247C73.8614 64.9917 73.9105 64.8912 73.9105 64.8912Z" fill="#D8315B"/>
<path fill-rule="evenodd" clip-rule="evenodd" d="M73.8914 64.9295C73.8839 64.9443 73.9261 64.8725 73.8914 64.9295V64.9295Z" fill="#D8315B"/>
<path fill-rule="evenodd" clip-rule="evenodd" d="M73.8961 64.9209L73.899 64.918C73.8976 64.9194 73.8976 64.9209 73.8961 64.9209Z" fill="#D8315B"/>
<path d="M99.523 33.9485H47.6757C46.3591 33.9485 45.2919 35.0152 45.2919 36.3309V69.0883C45.2919 70.404 46.3591 71.4706 47.6757 71.4706H99.523C100.84 71.4706 101.907 70.404 101.907 69.0883V36.3309C101.907 35.0152 100.84 33.9485 99.523 33.9485Z" fill="#BEDCFB"/>
<path fill-rule="evenodd" clip-rule="evenodd" d="M66.746 44.6691L50.0595 71.4706H83.4324L66.746 44.6691Z" fill="#AFB9C5"/>
<path fill-rule="evenodd" clip-rule="evenodd" d="M83.1345 51.8162L68.5338 71.4706H97.7351L83.1345 51.8162Z" fill="#D8315B"/>
<path fill-rule="evenodd" clip-rule="evenodd" d="M89.3919 51.8162C92.3543 51.8162 94.7554 49.4163 94.7554 46.4559C94.7554 43.4954 92.3543 41.0956 89.3919 41.0956C86.4294 41.0956 84.0284 43.4954 84.0284 46.4559C84.0284 49.4163 86.4294 51.8162 89.3919 51.8162Z" fill="white"/>
<path fill-rule="evenodd" clip-rule="evenodd" d="M358.159 319.227C358.162 319.233 358.164 319.239 358.168 319.247C358.164 319.241 358.159 319.216 358.159 319.227Z" fill="#D8315B"/>
<path fill-rule="evenodd" clip-rule="evenodd" d="M358.165 319.236C358.165 319.237 358.166 319.24 358.166 319.242C358.166 319.236 358.155 319.218 358.165 319.236Z" fill="#D8315B"/>
<path fill-rule="evenodd" clip-rule="evenodd" d="M358.124 319.135C358.132 319.159 358.143 319.182 358.152 319.206C358.148 319.194 358.143 319.184 358.138 319.172C358.262 319.484 358.183 319.281 358.124 319.135Z" fill="#D8315B"/>
<path fill-rule="evenodd" clip-rule="evenodd" d="M358.15 319.207C358.155 319.218 358.16 319.23 358.165 319.241C358.199 319.308 358.15 319.207 358.15 319.207Z" fill="#D8315B"/>
<path fill-rule="evenodd" clip-rule="evenodd" d="M358.17 319.246C358.135 319.189 358.177 319.261 358.17 319.246V319.246Z" fill="#D8315B"/>
<path fill-rule="evenodd" clip-rule="evenodd" d="M358.165 319.237L358.162 319.234C358.164 319.236 358.164 319.237 358.165 319.237Z" fill="#D8315B"/>
<path d="M318.235 273.375H398.092C399.408 273.375 400.476 274.442 400.476 275.757V326.978C400.476 328.294 399.408 329.36 398.092 329.36H318.235C316.919 329.36 315.851 328.294 315.851 326.978V275.757C315.851 274.442 316.919 273.375 318.235 273.375Z" fill="#BEDCFB"/>
<path fill-rule="evenodd" clip-rule="evenodd" d="M369.054 289.456L393.52 329.36H344.587L369.054 289.456Z" fill="#AFB9C5"/>
<path fill-rule="evenodd" clip-rule="evenodd" d="M343.827 300.145L365.457 329.36H322.198L343.827 300.145Z" fill="#D8315B"/>
<path fill-rule="evenodd" clip-rule="evenodd" d="M334.624 300.176C330.18 300.176 326.578 296.577 326.578 292.136C326.578 287.695 330.18 284.096 334.624 284.096C339.067 284.096 342.669 287.695 342.669 292.136C342.669 296.577 339.067 300.176 334.624 300.176Z" fill="white"/>
</svg>
