<?xml version="1.0" encoding="utf-8"?>
<!-- Generator: Adobe Illustrator 26.0.0, SVG Export Plug-In . SVG Version: 6.00 Build 0)  -->
<svg version="1.1" id="Layer_1" xmlns="http://www.w3.org/2000/svg" xmlns:xlink="http://www.w3.org/1999/xlink" x="0px" y="0px"
	 viewBox="0 0 230 64" style="enable-background:new 0 0 230 64;" xml:space="preserve">
<style type="text/css">
	.st0{fill:none;}
	.st1{clip-path:url(#SVGID_00000148648794520387786420000008813279267949256627_);}
	.st2{fill:#FFA000;}
	.st3{opacity:0.12;fill:url(#SVGID_00000183936060234282462160000016301962331230390682_);enable-background:new    ;}
	.st4{fill:#F57C00;}
	.st5{opacity:0.2;fill:url(#SVGID_00000111883527935150808620000007800268698265665975_);enable-background:new    ;}
	.st6{fill:#FFCA28;}
	.st7{fill:#FFFFFF;fill-opacity:0.2;}
	.st8{opacity:0.2;fill:#A52714;enable-background:new    ;}
	.st9{fill:url(#SVGID_00000030447586052165974150000005398528917688965802_);}
	.st10{fill:#FAFBFC;}
</style>
<rect x="-8.5" y="4.6" class="st0" width="55.5" height="55.5"/>
<g>
	<defs>
		<path id="SVGID_1_" d="M33.6,17.5c-0.1-0.7-0.7-1.1-1.4-1c-0.2,0-0.5,0.1-0.6,0.3L25.3,23l-4.9-9.3c-0.3-0.6-1-0.8-1.6-0.5
			c0,0,0,0,0,0c-0.2,0.1-0.4,0.3-0.5,0.5l-2.7,5.1L8.9,6.3c-0.3-0.6-1-0.8-1.6-0.5c0,0,0,0,0,0C7,6,6.7,6.3,6.7,6.7L0.2,48.2
			L17.5,58c1.1,0.6,2.4,0.6,3.5,0l17.5-9.7L33.6,17.5z"/>
	</defs>
	<clipPath id="SVGID_00000165915422943310585030000006487919534101669024_">
		<use xlink:href="#SVGID_1_"  style="overflow:visible;"/>
	</clipPath>
	<g style="clip-path:url(#SVGID_00000165915422943310585030000006487919534101669024_);">
		<path class="st2" d="M0.2,48.2L6.7,6.7c0.1-0.6,0.7-1.1,1.3-1C8.4,5.8,8.7,6,8.9,6.3l6.7,12.5l2.7-5.1c0.3-0.6,1-0.8,1.6-0.5
			c0,0,0,0,0,0c0.2,0.1,0.4,0.3,0.5,0.5l18.1,34.5H0.2z"/>
		
			<linearGradient id="SVGID_00000026161109691232445030000005890004448633212802_" gradientUnits="userSpaceOnUse" x1="7.625" y1="297.9705" x2="5.235" y2="299.2205" gradientTransform="matrix(1 0 0 -1 0 331.99)">
			<stop  offset="0" style="stop-color:#A52714"/>
			<stop  offset="0.4" style="stop-color:#A52714;stop-opacity:0.5"/>
			<stop  offset="0.8" style="stop-color:#A52714;stop-opacity:0"/>
		</linearGradient>
		<path style="opacity:0.12;fill:url(#SVGID_00000026161109691232445030000005890004448633212802_);enable-background:new    ;" d="
			M22.3,6L-9.4,3.3v57.5l9.6-12.6L22.3,6z"/>
		<path class="st4" d="M22.6,32l-7-13.2L0.2,48.2L22.6,32z"/>
		
			<linearGradient id="SVGID_00000106859080067073330840000011446733604690833047_" gradientUnits="userSpaceOnUse" x1="17.805" y1="301.465" x2="16.735" y2="302.535" gradientTransform="matrix(1 0 0 -1 0 331.99)">
			<stop  offset="0" style="stop-color:#A52714;stop-opacity:0.8"/>
			<stop  offset="0.5" style="stop-color:#A52714;stop-opacity:0.21"/>
			<stop  offset="1" style="stop-color:#A52714;stop-opacity:0"/>
		</linearGradient>
		<path style="opacity:0.2;fill:url(#SVGID_00000106859080067073330840000011446733604690833047_);enable-background:new    ;" d="
			M-9.4,3.3h57.5v57.5H-9.4V3.3z"/>
		<path class="st6" d="M38.5,48.2l-5-30.8c-0.1-0.7-0.7-1.1-1.4-1c-0.2,0-0.5,0.2-0.6,0.3L0.2,48.2L17.5,58c1.1,0.6,2.4,0.6,3.5,0
			L38.5,48.2z"/>
		<path class="st7" d="M33.6,17.5c-0.1-0.7-0.7-1.1-1.4-1c-0.2,0-0.5,0.1-0.6,0.3L25.3,23l-4.9-9.3c-0.3-0.6-1-0.8-1.6-0.5
			c0,0,0,0,0,0c-0.2,0.1-0.4,0.3-0.5,0.5l-2.7,5.1L8.9,6.3c-0.3-0.6-1-0.8-1.6-0.5c0,0,0,0,0,0C7,6,6.7,6.3,6.7,6.7L0.2,48.2l0,0
			l0,0l0.2,0.1l25-25l6.2-6.2c0.5-0.5,1.2-0.5,1.7,0c0,0,0,0,0,0c0.2,0.2,0.3,0.4,0.3,0.7l4.9,30.5h0.1L33.6,17.5z M0.2,48.2L6.7,7
			C6.7,6.4,7.3,5.9,8,6c0,0,0,0,0,0c0.4,0.1,0.7,0.3,0.9,0.6l6.7,12.5l2.7-5.1c0.3-0.6,1-0.8,1.6-0.5c0,0,0,0,0,0
			c0.2,0.1,0.4,0.3,0.5,0.5l4.8,9.1L0.2,48.2z"/>
		<path class="st8" d="M21,57.7c-1.1,0.6-2.4,0.6-3.5,0L0.2,48v0.3L17.5,58c1.1,0.6,2.4,0.6,3.5,0l17.5-9.7V48L21,57.7z"/>
		
			<linearGradient id="SVGID_00000173120584112340844440000014361213393751330964_" gradientUnits="userSpaceOnUse" x1="-860.7188" y1="1979.6754" x2="-845.7288" y2="1994.6754" gradientTransform="matrix(2.67 0 0 2.67 2297.26 -5270.77)">
			<stop  offset="0" style="stop-color:#FFFFFF;stop-opacity:0.1"/>
			<stop  offset="1" style="stop-color:#FFFFFF;stop-opacity:0"/>
		</linearGradient>
		<path style="fill:url(#SVGID_00000173120584112340844440000014361213393751330964_);" d="M33.6,17.5c-0.1-0.7-0.7-1.1-1.4-1
			c-0.2,0-0.5,0.1-0.6,0.3L25.3,23l-4.9-9.3c-0.3-0.6-1-0.8-1.6-0.5c0,0,0,0,0,0c-0.2,0.1-0.4,0.3-0.5,0.5l-2.7,5.1L8.9,6.3
			c-0.3-0.6-1-0.8-1.6-0.5c0,0,0,0,0,0C7,6,6.7,6.3,6.7,6.7L0.2,48.2L17.5,58c1.1,0.6,2.4,0.6,3.5,0l17.5-9.7L33.6,17.5z"/>
	</g>
</g>
<path class="st10" d="M75.4,48h-4.1V15.9h18.8v4H75.4v10.5h13.2v3.9H75.4L75.4,48L75.4,48z M97.2,20.5c-1.1,1.2-3,1.2-4.2,0.1
	s-1.2-3-0.1-4.2s3-1.2,4.2-0.1c0.6,0.6,0.9,1.4,0.9,2.2C98,19.2,97.7,20,97.2,20.5L97.2,20.5z M97.2,48H93V26h4.1L97.2,48z
	 M105.8,48h-4.1V26h4v3.6h0.2c0.5-1.3,1.4-2.3,2.6-2.9c1.1-0.7,2.4-1.1,3.8-1.2c1.1,0,2.1,0.1,3.1,0.5l-1.6,3.9
	c-0.7-0.2-1.5-0.3-2.2-0.3c-1.5,0-3,0.6-4,1.8c-1.2,1.3-1.8,2.9-1.7,4.7L105.8,48z M125.2,48.7c-3.1,0.1-6-1.1-8.1-3.3
	c-2.1-2.3-3.2-5.3-3.1-8.4c-0.1-3,1-6,3-8.3c1.9-2.3,4.8-3.5,7.8-3.5c2.9-0.1,5.8,1,7.8,3.2c2.1,2.3,3.1,5.4,3,8.5v0.8h-17.4
	c0,2,0.8,3.9,2.2,5.3c1.3,1.3,3,2,4.8,1.9c3,0,5-1.3,6-3.8l3.7,1.5c-0.7,1.7-1.9,3.2-3.5,4.2C129.5,48.2,127.4,48.8,125.2,48.7
	L125.2,48.7z M131.2,34.4c-0.1-1.4-0.8-2.6-1.7-3.6c-1.3-1.2-3-1.8-4.7-1.7c-1.5,0-2.9,0.5-4,1.4c-1.2,1-2,2.4-2.3,3.8H131.2z
	 M150.1,48.7c-1.6,0-3.1-0.3-4.5-1.1c-1.2-0.6-2.3-1.5-3-2.7h-0.2v3h-4v-32h4.1V26l-0.2,3.1h0.2c0.7-1.2,1.8-2.1,3-2.7
	c1.4-0.7,3-1.1,4.5-1.1c2.8,0,5.5,1.2,7.4,3.4c2.1,2.3,3.2,5.3,3.1,8.4c0.1,3.1-1,6.1-3.1,8.3C155.6,47.5,152.9,48.8,150.1,48.7
	L150.1,48.7z M149.4,45c1.9,0,3.7-0.8,4.9-2.2c1.4-1.6,2.2-3.6,2.1-5.8c0.1-2.1-0.6-4.2-2.1-5.8c-1.3-1.4-3.1-2.2-4.9-2.2
	c-1.9,0-3.7,0.7-4.9,2.1c-1.4,1.6-2.1,3.7-2,5.8c-0.1,2.1,0.6,4.2,2,5.8C145.7,44.3,147.5,45,149.4,45z M170.8,48.8
	c-2.1,0.1-4.2-0.6-5.9-2c-1.6-1.3-2.4-3.3-2.4-5.3c-0.1-2.2,1-4.4,2.8-5.7c2-1.4,4.4-2.1,6.9-2c2.1-0.1,4.1,0.4,6,1.3v-0.6
	c0.1-1.5-0.6-2.9-1.6-3.9c-1.1-1-2.6-1.5-4.1-1.5c-1.1,0-2.3,0.3-3.3,0.8c-0.9,0.5-1.6,1.3-2,2.3l-3.8-1.6c0.6-1.5,1.7-2.7,3-3.6
	c1.7-1.2,3.8-1.8,5.9-1.7c2.6-0.1,5.1,0.8,7,2.5c1.9,1.8,2.9,4.4,2.8,7V48h-4v-3H178C176.5,47.5,173.7,48.9,170.8,48.8L170.8,48.8z
	 M171.5,45c1.7,0,3.4-0.7,4.6-1.9c1.3-1.1,2.1-2.8,2.1-4.5c-1.5-1.1-3.4-1.6-5.2-1.5c-1.6-0.1-3.2,0.3-4.5,1.3
	c-0.9,0.7-1.5,1.8-1.5,3c0,1,0.5,2,1.4,2.6C169.3,44.6,170.4,45,171.5,45z M193.6,48.8c-2.2,0.1-4.3-0.5-6.1-1.8
	c-1.6-1.1-2.8-2.7-3.5-4.5l3.7-1.5c0.9,2.6,3.3,4.2,6,4.1c1.1,0.1,2.2-0.2,3.2-0.8c0.8-0.5,1.2-1.4,1.2-2.3c0-1.4-1-2.4-3-2.9
	l-4.5-1.1c-1.5-0.4-2.8-1.1-4-2c-1.2-1-2-2.5-1.9-4.1c0-1.9,1-3.7,2.6-4.7c3.4-2.3,7.8-2.4,11.3-0.5c1.5,0.8,2.7,2.2,3.3,3.8
	l-3.6,1.5c-0.8-1.9-2.5-2.9-5-2.9c-1.1,0-2.1,0.2-3.1,0.8c-0.8,0.4-1.3,1.2-1.3,2c0,1.3,1,2.1,2.9,2.6l4.4,1
	c1.8,0.3,3.4,1.2,4.6,2.5c1,1.1,1.5,2.5,1.5,4c0,1.9-0.9,3.8-2.4,4.9C198.1,48.2,195.9,48.9,193.6,48.8L193.6,48.8z M215.2,48.8
	c-3.1,0.1-6-1.1-8.1-3.3c-2.1-2.3-3.2-5.3-3.1-8.4c-0.1-3,1-6,3-8.3c1.9-2.3,4.8-3.5,7.8-3.5c2.9-0.1,5.8,1,7.8,3.2
	c2,2.3,3.1,5.4,3,8.5v0.8h-17.4c0,2,0.8,3.9,2.2,5.3c1.3,1.3,3,2,4.8,2c2.9,0,5-1.3,6-3.8l3.7,1.5c-0.7,1.7-2,3.2-3.5,4.2
	C219.5,48.2,217.4,48.8,215.2,48.8L215.2,48.8z M221.1,34.4c-0.1-1.4-0.7-2.6-1.7-3.6c-1.3-1.2-3-1.8-4.7-1.7c-1.5,0-2.9,0.5-4,1.4
	c-1.2,1-2,2.4-2.3,3.8H221.1z"/>
</svg>
