<svg width="693" height="425" viewBox="0 0 693 425" fill="none" xmlns="http://www.w3.org/2000/svg">
<g clip-path="url(#clip0_217_56)">
<path d="M646.735 383.782C643.45 384.942 639.922 385.233 636.491 384.626C633.061 384.019 629.844 382.535 627.151 380.316C620.291 374.533 618.14 365.007 616.391 356.184L611.215 330.088L622.051 337.583C629.844 342.973 637.813 348.537 643.208 356.344C648.604 364.151 650.958 374.81 646.624 383.258" fill="#E6E6E6"/>
<path d="M645.062 417.193C646.426 407.211 647.829 397.1 646.87 387.012C646.021 378.052 643.299 369.302 637.759 362.125C634.818 358.323 631.24 355.065 627.185 352.499C626.128 351.829 625.155 353.512 626.207 354.179C633.224 358.633 638.651 365.211 641.706 372.963C645.08 381.584 645.622 390.982 645.041 400.14C644.69 405.678 643.943 411.179 643.193 416.675C643.134 416.923 643.171 417.185 643.297 417.407C643.422 417.629 643.627 417.795 643.87 417.871C644.118 417.938 644.382 417.905 644.605 417.777C644.828 417.65 644.992 417.44 645.062 417.192L645.062 417.193Z" fill="#F2F2F2"/>
<path d="M635.245 401.176C633.836 403.328 631.899 405.08 629.621 406.261C627.342 407.443 624.799 408.015 622.236 407.923C615.649 407.609 610.16 402.993 605.219 398.609L590.602 385.644L600.276 385.179C607.233 384.844 614.37 384.531 620.996 386.688C627.622 388.846 633.733 394.03 634.945 400.92" fill="#E6E6E6"/>
<path d="M648.918 422.931C642.351 411.26 634.736 398.289 621.126 394.143C617.343 392.994 613.375 392.583 609.438 392.931C608.196 393.038 608.506 394.96 609.745 394.853C616.345 394.302 622.933 396.053 628.399 399.81C633.659 403.407 637.755 408.407 641.22 413.709C643.344 416.957 645.246 420.343 647.147 423.724C647.755 424.804 649.532 424.024 648.918 422.931Z" fill="#F2F2F2"/>
<path d="M414.387 126.626V237.754H158.877V296.759H91.327V126.626H414.387Z" fill="white"/>
<path d="M88.3871 123.681V299.712H158.877V293.814H94.2585V129.579H411.456V237.754H417.327V123.681H88.3871Z" fill="#E5E5E5"/>
<path d="M363.823 189.6H159.04V196.862H363.823V189.6Z" fill="#E5E5E5"/>
<path d="M363.823 208.481H159.04V215.742H363.823V208.481Z" fill="#E5E5E5"/>
<path d="M363.823 227.361H159.04V234.623H363.823V227.361Z" fill="#E5E5E5"/>
<path d="M146.61 198.244C149.215 198.244 151.327 196.123 151.327 193.505C151.327 190.888 149.215 188.766 146.61 188.766C144.004 188.766 141.892 190.888 141.892 193.505C141.892 196.123 144.004 198.244 146.61 198.244Z" fill="#E5E5E5"/>
<path d="M326.442 2.94479V114.073H70.9321V173.078H3.3819V2.94479H326.442Z" fill="white"/>
<path d="M0.442024 0V176.031H70.9322V170.133H6.3134V5.89799H323.51V114.073H329.382V0H0.442024Z" fill="#F1F1F1"/>
<path d="M275.878 65.9193H71.0948V73.181H275.878V65.9193Z" fill="#F1F1F1"/>
<path d="M275.878 84.7997H71.0948V92.0614H275.878V84.7997Z" fill="#F1F1F1"/>
<path d="M275.878 103.68H71.0948V110.942H275.878V103.68Z" fill="#F1F1F1"/>
<path d="M58.6645 74.5633C61.2701 74.5633 63.3823 72.4415 63.3823 69.8242C63.3823 67.2068 61.2701 65.0851 58.6645 65.0851C56.059 65.0851 53.9468 67.2068 53.9468 69.8242C53.9468 72.4415 56.059 74.5633 58.6645 74.5633Z" fill="#F1F1F1"/>
<path d="M499.211 251.917H176.145V422.05H499.211V251.917Z" fill="white"/>
<path d="M502.148 425H173.208V248.967H502.148V425ZM179.082 419.1H496.274V254.868H179.082V419.1Z" fill="#CBCBCB"/>
<path d="M448.289 315.157H243.506V322.418H448.289V315.157Z" fill="#D8315B"/>
<path d="M448.289 334.037H243.506V341.299H448.289V334.037Z" fill="#D8315B"/>
<path d="M448.289 352.917H243.506V360.179H448.289V352.917Z" fill="#D8315B"/>
<path d="M231.076 323.801C233.681 323.801 235.793 321.679 235.793 319.061C235.793 316.444 233.681 314.322 231.076 314.322C228.47 314.322 226.358 316.444 226.358 319.061C226.358 321.679 228.47 323.801 231.076 323.801Z" fill="#D8315B"/>
<path d="M451.59 248.973C450.877 247.963 450.393 246.808 450.172 245.59C449.952 244.372 450 243.12 450.313 241.922C450.626 240.724 451.197 239.61 451.985 238.658C452.773 237.706 453.76 236.939 454.875 236.411L478.24 162.92L494.513 171.412L466.429 240.981C467.187 242.922 467.21 245.074 466.494 247.031C465.778 248.988 464.372 250.613 462.543 251.598C460.714 252.583 458.589 252.86 456.57 252.376C454.551 251.893 452.779 250.682 451.59 248.973Z" fill="#9F616A"/>
<path d="M470.678 173.083C470.455 172.586 470.341 172.046 470.344 171.5C470.347 170.954 470.467 170.415 470.696 169.921L478.699 152.637C479.488 149.959 481.302 147.705 483.743 146.369C486.184 145.033 489.053 144.724 491.721 145.509C494.388 146.294 496.637 148.111 497.974 150.559C499.31 153.007 499.626 155.888 498.851 158.57L496.177 177.504C496.1 178.045 495.909 178.562 495.615 179.021C495.322 179.481 494.933 179.871 494.476 180.166C494.019 180.461 493.504 180.654 492.966 180.73C492.428 180.807 491.88 180.767 491.359 180.612L473.051 175.163C472.53 175.008 472.048 174.742 471.639 174.383C471.229 174.024 470.902 173.581 470.678 173.083Z" fill="#D8315B"/>
<path d="M538.179 176L536.875 194.357L492.495 210.091L491.842 192.39L538.179 176Z" fill="#9F616A"/>
<path d="M481.4 149.121L495.758 138.631L519.253 132.075L538.832 136.009L542.096 166.822L538.18 186.489L487.274 198.29L482.053 189.112C482.053 189.112 470.306 177.311 479.443 164.199L481.4 149.121Z" fill="#D8315B"/>
<path d="M476.179 122.197V104.98C476.179 97.6962 479.06 90.7103 484.187 85.5596C489.315 80.4088 496.269 77.5152 503.521 77.5152C510.772 77.5152 517.726 80.4088 522.854 85.5596C527.981 90.7103 530.862 97.6962 530.862 104.98V122.197C530.861 123.176 530.473 124.113 529.785 124.805C529.096 125.497 528.163 125.886 527.189 125.887H479.852C478.878 125.886 477.945 125.497 477.256 124.805C476.568 124.113 476.18 123.176 476.179 122.197Z" fill="#2F2E41"/>
<path d="M502.422 125.717C513.493 125.717 522.467 116.702 522.467 105.581C522.467 94.4597 513.493 85.4442 502.422 85.4442C491.351 85.4442 482.376 94.4597 482.376 105.581C482.376 116.702 491.351 125.717 502.422 125.717Z" fill="#9F616A"/>
<path d="M481.826 105.503C481.634 105.281 481.492 105.02 481.41 104.738C481.328 104.456 481.306 104.16 481.348 103.869L483.723 87.259C483.77 86.921 483.9 86.6002 484.102 86.3255C484.303 86.0508 484.57 85.8309 484.877 85.6857C496.997 79.9876 509.288 79.9804 521.408 85.6641C521.73 85.8172 522.006 86.0515 522.211 86.3441C522.415 86.6367 522.541 86.9776 522.574 87.3335L524.16 103.965C524.187 104.25 524.154 104.536 524.065 104.808C523.975 105.079 523.83 105.328 523.639 105.539C523.447 105.751 523.214 105.92 522.954 106.035C522.694 106.151 522.413 106.21 522.128 106.21H518.108C517.72 106.209 517.34 106.098 517.013 105.888C516.686 105.679 516.424 105.38 516.259 105.028L514.524 101.293C514.412 101.052 514.225 100.853 513.99 100.728C513.756 100.602 513.487 100.557 513.225 100.599C512.962 100.64 512.721 100.766 512.536 100.958C512.351 101.149 512.233 101.396 512.2 101.661L511.858 104.414C511.795 104.91 511.555 105.366 511.183 105.696C510.81 106.027 510.33 106.21 509.833 106.21H483.368C483.075 106.21 482.786 106.147 482.52 106.025C482.254 105.903 482.017 105.725 481.826 105.503Z" fill="#2F2E41"/>
<path d="M568.844 240.399C567.643 240.119 566.518 239.578 565.548 238.813C564.578 238.049 563.787 237.081 563.229 235.976C562.672 234.871 562.363 233.658 562.324 232.42C562.284 231.182 562.515 229.951 563.001 228.813L531.916 158.266L549.698 153.767L574.662 224.527C576.511 225.473 577.951 227.067 578.708 229.008C579.466 230.949 579.488 233.102 578.771 235.059C578.054 237.015 576.647 238.639 574.817 239.623C572.988 240.608 570.862 240.884 568.844 240.399Z" fill="#9F616A"/>
<path d="M532.976 170.909C532.48 170.686 532.037 170.359 531.679 169.948C531.321 169.538 531.055 169.055 530.899 168.532L525.464 150.269C524.285 147.74 524.152 144.845 525.095 142.218C526.038 139.591 527.979 137.446 530.494 136.255C533.008 135.064 535.89 134.923 538.508 135.863C541.125 136.803 543.265 138.747 544.458 141.27L554.968 157.215C555.268 157.67 555.467 158.185 555.551 158.724C555.635 159.263 555.602 159.814 555.455 160.339C555.308 160.865 555.05 161.352 554.699 161.768C554.347 162.185 553.911 162.52 553.418 162.751L536.124 170.883C535.632 171.115 535.096 171.237 534.553 171.242C534.009 171.246 533.471 171.133 532.976 170.909Z" fill="#D8315B"/>
<path d="M535.946 412.57L524.633 412.569L519.25 368.732L535.948 368.733L535.946 412.57Z" fill="#9F616A"/>
<path d="M538.832 423.586L502.351 423.585V423.122C502.351 419.339 503.847 415.711 506.51 413.036C509.173 410.361 512.784 408.858 516.55 408.858H516.551L538.832 408.859L538.832 423.586Z" fill="#2F2E41"/>
<path d="M527.348 320.013L519.635 328.328L484.038 302.398L495.422 290.127L527.348 320.013Z" fill="#9F616A"/>
<path d="M537.339 325.403L512.468 352.213L512.13 351.897C509.375 349.318 507.753 345.745 507.62 341.965C507.487 338.184 508.855 334.505 511.422 331.738L511.423 331.737L526.613 315.362L537.339 325.403Z" fill="#2F2E41"/>
<path d="M539.485 194.357L543.103 197.991C561.203 216.173 565.659 241.383 563.485 267.003C563.181 270.802 562.575 274.57 561.674 278.272C555.148 304.496 559.064 388.412 546.011 393.657L543.401 402.835L517.948 401.89L518.601 393.657C518.601 393.657 512.727 381.2 516.643 373.333C520.558 365.466 529.043 307.118 529.043 307.118L524.474 259.26L490.537 276.306C490.537 276.306 508.158 286.14 506.853 292.695C506.853 292.695 517.295 295.318 514.685 301.874L518.601 309.741L509.464 324.164C509.464 324.164 448.116 287.451 453.337 269.094C458.558 250.737 491.19 237.626 491.19 237.626L493.8 217.958L491.55 207.241L537.212 189.609L539.485 194.357Z" fill="#2F2E41"/>
<path d="M691.759 425H319.877C319.655 425 319.442 424.911 319.285 424.754C319.128 424.596 319.039 424.382 319.039 424.159C319.039 423.935 319.128 423.721 319.285 423.564C319.442 423.406 319.655 423.317 319.877 423.317H691.759C691.981 423.317 692.194 423.406 692.351 423.564C692.509 423.721 692.597 423.935 692.597 424.159C692.597 424.382 692.509 424.596 692.351 424.754C692.194 424.911 691.981 425 691.759 425Z" fill="#CBCBCB"/>
</g>
<defs>
<clipPath id="clip0_217_56">
<rect width="692.155" height="425" fill="white" transform="translate(0.442017)"/>
</clipPath>
</defs>
</svg>
