<svg width="30" height="30" viewBox="0 0 30 30" fill="none" xmlns="http://www.w3.org/2000/svg">
<path d="M14.5 4.00004C8.70574 4.00004 4 8.7057 4 14.5C4 20.2943 8.70578 25 14.5 25C20.2943 25 25 20.2943 25 14.5001C25 8.70579 20.2942 4 14.5 4L14.5 4.00004ZM14.5 4.78414C19.8709 4.78414 24.2172 9.12911 24.2172 14.5001C24.2172 15.8461 23.9431 17.127 23.4494 18.292L21.5953 16.7716C19.4227 17.3838 16.7636 17.1672 15.5126 14.106L13.6747 20.8031C13.2878 18.8093 12.6522 17.2439 11.577 15.7576C10.7139 16.3643 10.1603 17.1865 9.83766 17.9896L7.28025 13.6953C6.4986 14.8917 5.80147 16.1723 5.30831 17.657C4.9692 16.6674 4.78423 15.6054 4.78423 14.5C4.78423 13.3609 4.98058 12.2679 5.33979 11.2527C5.4603 11.5421 5.74572 11.7454 6.07874 11.7454C6.52071 11.7454 6.87922 11.3882 6.87922 10.9462C6.87922 10.5042 6.52071 10.1457 6.07874 10.1457C5.97431 10.1457 5.87468 10.1668 5.78316 10.2031C6.989 7.75831 9.19132 5.89558 11.8631 5.14537C11.8383 5.23216 11.8259 5.32201 11.8262 5.41227C11.8262 5.94414 12.2563 6.37564 12.7882 6.37564C13.32 6.37564 13.7516 5.94414 13.7516 5.41227C13.7516 5.19376 13.6785 4.99232 13.5558 4.83074C13.8664 4.80083 14.1816 4.78414 14.5001 4.78414H14.5ZM15.3211 5.99524C15.254 5.9952 15.1876 6.00838 15.1257 6.03402C15.0637 6.05965 15.0074 6.09725 14.96 6.14466C14.9126 6.19207 14.875 6.24836 14.8494 6.31031C14.8237 6.37226 14.8106 6.43865 14.8106 6.5057C14.8106 6.78784 15.0389 7.01747 15.321 7.01747C15.6032 7.01747 15.8328 6.78788 15.8328 6.50574C15.8328 6.22356 15.6032 5.99533 15.321 5.99533L15.3211 5.99524ZM12.0573 7.26655C11.7937 7.26918 11.526 7.30456 11.2595 7.37602C9.55412 7.83293 8.54192 9.58566 8.99887 11.2911C9.45586 12.9965 11.2086 14.0087 12.914 13.5517C13.8647 13.2969 14.599 12.6387 14.9844 11.8111C14.6753 12.1445 14.2783 12.3836 13.839 12.5008C12.5471 12.8469 11.2184 12.0808 10.8723 10.7888C10.526 9.49685 11.2935 8.16963 12.5855 7.82338C13.0414 7.70129 13.501 7.71754 13.9211 7.84672C13.3834 7.47022 12.7337 7.25976 12.0573 7.26655ZM18.857 7.30202C18.4451 7.30202 18.1113 7.63587 18.1113 8.04785C18.1113 8.45991 18.4451 8.79368 18.857 8.79368C19.2691 8.79368 19.6029 8.45987 19.6029 8.04794C19.6029 7.63587 19.2691 7.30206 18.8571 7.30206L18.857 7.30202ZM7.95614 8.50081C7.67401 8.50081 7.44573 8.73044 7.44573 9.01263C7.44573 9.29476 7.67396 9.52304 7.9561 9.52304C8.23824 9.52304 8.46651 9.29476 8.46651 9.01263C8.46651 8.73044 8.23828 8.50081 7.95614 8.50081ZM20.0285 10.288L20.0011 11.5948L18.7653 12.0245L20.0011 12.4542L20.0285 13.761L20.818 12.7197L22.0688 13.0974L21.323 12.0245L22.0688 10.9504L20.818 11.3294L20.0285 10.288L20.0285 10.288ZM16.8715 10.7957C16.5893 10.7957 16.361 11.0239 16.361 11.3061C16.361 11.5882 16.5893 11.8178 16.8714 11.8178C17.1535 11.8178 17.3832 11.5882 17.3832 11.306C17.3832 11.0238 17.1535 10.7956 16.8714 10.7956L16.8715 10.7957ZM22.9583 14.069C22.676 14.069 22.4478 14.2986 22.4478 14.5807C22.4478 14.8629 22.676 15.0911 22.9582 15.0911C23.2403 15.0911 23.4699 14.8629 23.4699 14.5807C23.4699 14.2986 23.2403 14.0689 22.9582 14.0689L22.9583 14.069ZM17.3832 14.2222C17.1011 14.2222 16.8728 14.4519 16.8728 14.734C16.8728 15.0161 17.1011 15.2444 17.3832 15.2444C17.4502 15.2445 17.5166 15.2313 17.5786 15.2056C17.6405 15.18 17.6968 15.1424 17.7442 15.095C17.7916 15.0476 17.8292 14.9913 17.8549 14.9294C17.8805 14.8674 17.8937 14.801 17.8936 14.734C17.8936 14.4519 17.6654 14.2222 17.3832 14.2222Z" fill="#577399"/>
</svg>
